<?xml version="1.0" encoding="UTF-8"?>
<svg width="800" height="600" xmlns="http://www.w3.org/2000/svg">
  <defs>
    <radialGradient id="grad-abs" cx="50%" cy="50%" r="50%">
      <stop offset="0%" style="stop-color:#2C2C2C;stop-opacity:1" />
      <stop offset="100%" style="stop-color:#000000;stop-opacity:1" />
    </radialGradient>
    <filter id="shadow">
      <feGaussianBlur in="SourceAlpha" stdDeviation="3"/>
      <feOffset dx="0" dy="2" result="offsetblur"/>
      <feComponentTransfer>
        <feFuncA type="linear" slope="0.3"/>
      </feComponentTransfer>
      <feMerge> 
        <feMergeNode/>
        <feMergeNode in="SourceGraphic"/> 
      </feMerge>
    </filter>
  </defs>
  
  <!-- Background -->
  <rect width="800" height="600" fill="url(#grad-abs)"/>
  
  <!-- Granule circles pattern -->
  <g opacity="0.4">
    <circle cx="462.04462069448545" cy="545.1443545021476" r="10.665315584853587" fill="white" opacity="0.3"/><circle cx="322.9659972500662" cy="190.2628425793352" r="5.318460821469225" fill="white" opacity="0.3"/><circle cx="83.7374979765312" cy="147.66720253422002" r="9.447943741499241" fill="white" opacity="0.3"/><circle cx="391.77093867577304" cy="427.8736711198485" r="6.731953926147526" fill="white" opacity="0.3"/><circle cx="746.9685807937686" cy="281.6007286353111" r="11.144211292208219" fill="white" opacity="0.3"/><circle cx="630.8638427791109" cy="193.34785582335178" r="11.625717728455633" fill="white" opacity="0.3"/><circle cx="145.43333570978518" cy="393.54300288170793" r="7.371481211395893" fill="white" opacity="0.3"/><circle cx="174.964186647781" cy="133.4906926675514" r="8.83983130455345" fill="white" opacity="0.3"/><circle cx="272.18562900894835" cy="395.2475840777689" r="8.413432431273979" fill="white" opacity="0.3"/><circle cx="568.2589677011479" cy="474.659176098919" r="14.075649197072755" fill="white" opacity="0.3"/><circle cx="662.3865617787505" cy="292.7685649985652" r="10.790572411924025" fill="white" opacity="0.3"/><circle cx="38.681895416236856" cy="215.46808780115845" r="13.264207578167147" fill="white" opacity="0.3"/><circle cx="702.1784984828564" cy="171.16907668021264" r="18.32529895112271" fill="white" opacity="0.3"/><circle cx="475.0948140000542" cy="172.67490851262585" r="12.239269014601344" fill="white" opacity="0.3"/><circle cx="53.35017561741591" cy="421.0556637176974" r="10.877352554657419" fill="white" opacity="0.3"/><circle cx="501.61375679937936" cy="395.0058762725914" r="19.278705686379844" fill="white" opacity="0.3"/><circle cx="168.05557571133426" cy="212.4733409321968" r="15.68108710343622" fill="white" opacity="0.3"/><circle cx="714.4991905633149" cy="133.07271586228447" r="14.680366767495205" fill="white" opacity="0.3"/><circle cx="551.474302089927" cy="248.3353248035464" r="11.932656801289006" fill="white" opacity="0.3"/><circle cx="170.3357849794669" cy="585.551814274911" r="19.14813085087482" fill="white" opacity="0.3"/><circle cx="532.7849041179783" cy="236.44482490960672" r="9.609498681083519" fill="white" opacity="0.3"/><circle cx="442.51247935996514" cy="266.388323139284" r="13.206927367503823" fill="white" opacity="0.3"/><circle cx="734.2916575282022" cy="447.413266464313" r="12.609576883918557" fill="white" opacity="0.3"/><circle cx="614.8140890614986" cy="344.03005903547" r="15.08059617010595" fill="white" opacity="0.3"/><circle cx="617.7210790689111" cy="41.378007091626316" r="19.141298197174873" fill="white" opacity="0.3"/><circle cx="357.699925652411" cy="156.39758750189142" r="13.378641145757406" fill="white" opacity="0.3"/><circle cx="377.7903276043479" cy="595.4180024757949" r="13.82304977961703" fill="white" opacity="0.3"/><circle cx="371.38386900774316" cy="334.20513389410894" r="14.406014108903271" fill="white" opacity="0.3"/><circle cx="477.01643517248095" cy="32.757377779835984" r="8.591861706705707" fill="white" opacity="0.3"/><circle cx="252.47892159953506" cy="511.2847364433328" r="9.09470106742668" fill="white" opacity="0.3"/><circle cx="465.69843692943255" cy="490.14365722469444" r="8.634923357891122" fill="white" opacity="0.3"/><circle cx="629.3368482187993" cy="30.060981509567377" r="16.347757606580736" fill="white" opacity="0.3"/><circle cx="4.209022271623475" cy="45.4363937214181" r="18.074965717664433" fill="white" opacity="0.3"/><circle cx="697.2400737376463" cy="565.2934986271125" r="9.300314909434789" fill="white" opacity="0.3"/><circle cx="295.4040433547609" cy="162.3677246219341" r="6.825447116736488" fill="white" opacity="0.3"/><circle cx="407.064995221368" cy="69.19795299542453" r="13.764815402615715" fill="white" opacity="0.3"/><circle cx="505.5577434008081" cy="215.85140757886128" r="18.877191662593695" fill="white" opacity="0.3"/><circle cx="288.6040615222751" cy="407.94011014701925" r="12.116727608733193" fill="white" opacity="0.3"/><circle cx="692.6920931112852" cy="321.40246722605497" r="5.328910917172806" fill="white" opacity="0.3"/><circle cx="231.05752665549727" cy="97.13576280858163" r="18.008480806689185" fill="white" opacity="0.3"/><circle cx="523.247081045921" cy="267.5328286383263" r="14.97493952099642" fill="white" opacity="0.3"/><circle cx="361.55392366131076" cy="282.67318934554817" r="18.101092274842138" fill="white" opacity="0.3"/><circle cx="748.2087404960668" cy="434.95835329507213" r="8.127960662371843" fill="white" opacity="0.3"/><circle cx="233.98225536927936" cy="581.8296095853705" r="17.192797160020174" fill="white" opacity="0.3"/><circle cx="435.7684743974043" cy="353.33260082895293" r="17.685773557991915" fill="white" opacity="0.3"/><circle cx="793.1202603706218" cy="537.0661319453231" r="17.577074419083004" fill="white" opacity="0.3"/><circle cx="488.494270973801" cy="304.5228333488269" r="14.994924155771871" fill="white" opacity="0.3"/><circle cx="88.24436339573936" cy="230.61467394320218" r="9.287554413015961" fill="white" opacity="0.3"/><circle cx="290.7443487086005" cy="471.8456171823813" r="7.190119669994476" fill="white" opacity="0.3"/><circle cx="324.3148371423664" cy="42.36636145206578" r="12.67075117487887" fill="white" opacity="0.3"/><circle cx="111.25018126382199" cy="446.69817385064096" r="8.298206291636566" fill="white" opacity="0.3"/><circle cx="155.82911633033217" cy="393.89910442681764" r="7.444205324738409" fill="white" opacity="0.3"/><circle cx="718.9113049474724" cy="84.27199767216207" r="10.791301702979439" fill="white" opacity="0.3"/><circle cx="334.51129576588005" cy="550.192872634944" r="19.950585653626923" fill="white" opacity="0.3"/><circle cx="356.69330645466175" cy="319.3392291566651" r="15.998548728996411" fill="white" opacity="0.3"/><circle cx="423.79300162464347" cy="152.27147251771018" r="12.967412923152752" fill="white" opacity="0.3"/><circle cx="302.625432548317" cy="529.6367902795209" r="18.576681138446084" fill="white" opacity="0.3"/><circle cx="238.10065183523238" cy="27.076050649387675" r="9.736559554570704" fill="white" opacity="0.3"/><circle cx="134.36150016202762" cy="433.24554644801054" r="13.493282814730744" fill="white" opacity="0.3"/><circle cx="298.6673801097786" cy="37.89996186967359" r="5.845175249286999" fill="white" opacity="0.3"/><circle cx="602.3229475966879" cy="275.5569742766812" r="12.250064266124156" fill="white" opacity="0.3"/><circle cx="736.3835236212603" cy="490.7394115271993" r="19.708702725530742" fill="white" opacity="0.3"/><circle cx="666.9981953090538" cy="46.422117312995816" r="13.42655531199998" fill="white" opacity="0.3"/><circle cx="51.511149255588066" cy="414.2199886211018" r="11.593323612658395" fill="white" opacity="0.3"/><circle cx="259.97796768270314" cy="515.478513486008" r="18.492314992019097" fill="white" opacity="0.3"/><circle cx="564.562467118633" cy="325.47911485628936" r="13.936994645781228" fill="white" opacity="0.3"/><circle cx="633.2018706121759" cy="564.581296680398" r="8.239979836265325" fill="white" opacity="0.3"/><circle cx="754.8709117450977" cy="417.25054665245017" r="19.72104082377713" fill="white" opacity="0.3"/><circle cx="69.11452976955567" cy="62.59624722919186" r="16.108107016688432" fill="white" opacity="0.3"/><circle cx="761.4222841435981" cy="236.6081834077138" r="13.605508246967652" fill="white" opacity="0.3"/><circle cx="409.0995269899595" cy="451.75207719170544" r="11.954144994803405" fill="white" opacity="0.3"/><circle cx="306.17408358446596" cy="209.26983154972987" r="6.415462721568389" fill="white" opacity="0.3"/><circle cx="64.94305940811245" cy="208.86034983866267" r="7.76424059855986" fill="white" opacity="0.3"/><circle cx="81.31403185724162" cy="418.34131684229374" r="17.453550973033163" fill="white" opacity="0.3"/><circle cx="106.42388052427911" cy="197.4294401858223" r="17.940159441792673" fill="white" opacity="0.3"/><circle cx="282.7419111950345" cy="587.1873010415014" r="5.634797807932333" fill="white" opacity="0.3"/><circle cx="125.19596528371828" cy="329.59518536875186" r="7.4276379719491334" fill="white" opacity="0.3"/><circle cx="145.77670522305502" cy="485.35500416459075" r="16.259411212091255" fill="white" opacity="0.3"/><circle cx="305.2886421058396" cy="229.57347047193272" r="7.041672709888309" fill="white" opacity="0.3"/><circle cx="243.63957005176795" cy="534.3608772795169" r="15.443361598538274" fill="white" opacity="0.3"/><circle cx="651.2545114894631" cy="241.80064353971952" r="6.63221122176906" fill="white" opacity="0.3"/><circle cx="381.46448391710874" cy="50.44058234771256" r="17.024503294170444" fill="white" opacity="0.3"/><circle cx="718.5810317298759" cy="293.8966751921632" r="18.669197758680028" fill="white" opacity="0.3"/><circle cx="607.3119485667847" cy="228.9251297813652" r="15.080995075148822" fill="white" opacity="0.3"/><circle cx="162.01133670930145" cy="327.79262624735634" r="15.524432143918277" fill="white" opacity="0.3"/><circle cx="783.1515084451536" cy="171.1447477378947" r="18.92252689699911" fill="white" opacity="0.3"/><circle cx="377.54458050731864" cy="102.47810453850867" r="7.004122333814734" fill="white" opacity="0.3"/><circle cx="349.0121268236499" cy="30.333727993617863" r="8.409715919528365" fill="white" opacity="0.3"/><circle cx="570.8781720812701" cy="346.39914911020605" r="8.64573199780881" fill="white" opacity="0.3"/><circle cx="375.6067118688482" cy="381.01121613741196" r="9.693444744135254" fill="white" opacity="0.3"/><circle cx="489.88098438436117" cy="67.0758829272904" r="16.087233257000957" fill="white" opacity="0.3"/><circle cx="593.2878600387147" cy="493.63187472252315" r="11.246757548232722" fill="white" opacity="0.3"/><circle cx="185.00570598401998" cy="465.7095543423195" r="9.518243115945605" fill="white" opacity="0.3"/><circle cx="602.0520489767977" cy="440.2136716261997" r="5.037017137653337" fill="white" opacity="0.3"/><circle cx="574.2314386006866" cy="354.0975899770836" r="14.222013487335596" fill="white" opacity="0.3"/><circle cx="542.2657638571616" cy="121.17712590930014" r="15.91147149948676" fill="white" opacity="0.3"/><circle cx="355.37061402067894" cy="271.7612543575615" r="5.046189445210883" fill="white" opacity="0.3"/><circle cx="547.7203236883458" cy="12.64026171702859" r="14.011990194599832" fill="white" opacity="0.3"/><circle cx="537.1678558380107" cy="413.4620553583525" r="13.92363521112623" fill="white" opacity="0.3"/><circle cx="164.34451219091696" cy="504.92952941948624" r="5.739579680882817" fill="white" opacity="0.3"/>
  </g>
  
  <!-- Text -->
  <g filter="url(#shadow)">
    <text x="400" y="280" font-family="Arial, sans-serif" font-size="48" font-weight="bold" fill="#FFFFFF" text-anchor="middle">
      ABS Plastic
    </text>
    <text x="400" y="330" font-family="Arial, sans-serif" font-size="24" fill="#FFFFFF" text-anchor="middle" opacity="0.8">
      Impact-Resistant Granules
    </text>
  </g>
  
  <!-- Watermark -->
  <text x="400" y="570" font-family="Arial, sans-serif" font-size="14" fill="#FFFFFF" text-anchor="middle" opacity="0.5">
    Arihant Polyplast • Premium Quality Materials
  </text>
</svg>