<?xml version="1.0" encoding="UTF-8"?>
<svg width="800" height="600" xmlns="http://www.w3.org/2000/svg">
  <defs>
    <radialGradient id="grad-masterbatch" cx="50%" cy="50%" r="50%">
      <stop offset="0%" style="stop-color:#FFB6C1;stop-opacity:1" />
      <stop offset="100%" style="stop-color:#cc838e;stop-opacity:1" />
    </radialGradient>
    <filter id="shadow">
      <feGaussianBlur in="SourceAlpha" stdDeviation="3"/>
      <feOffset dx="0" dy="2" result="offsetblur"/>
      <feComponentTransfer>
        <feFuncA type="linear" slope="0.3"/>
      </feComponentTransfer>
      <feMerge> 
        <feMergeNode/>
        <feMergeNode in="SourceGraphic"/> 
      </feMerge>
    </filter>
  </defs>
  
  <!-- Background -->
  <rect width="800" height="600" fill="url(#grad-masterbatch)"/>
  
  <!-- Granule circles pattern -->
  <g opacity="0.4">
    <circle cx="720.3407765334289" cy="217.00261050852882" r="6.841006838923776" fill="white" opacity="0.3"/><circle cx="202.9192935937572" cy="212.38153123316826" r="6.907303149338091" fill="white" opacity="0.3"/><circle cx="763.3776241320469" cy="388.6384564746712" r="11.704938066910273" fill="white" opacity="0.3"/><circle cx="669.5948608141487" cy="245.79254154689346" r="15.28873753507571" fill="white" opacity="0.3"/><circle cx="605.6875253426838" cy="111.03631886562817" r="9.010500908578777" fill="white" opacity="0.3"/><circle cx="386.3424363358514" cy="449.7122169103342" r="11.984984936098288" fill="white" opacity="0.3"/><circle cx="628.3669478361506" cy="38.49117857106603" r="5.24488007640944" fill="white" opacity="0.3"/><circle cx="358.9650536418391" cy="393.4193957105991" r="10.458830950122664" fill="white" opacity="0.3"/><circle cx="680.5344712789724" cy="172.46624011736975" r="14.539038892447298" fill="white" opacity="0.3"/><circle cx="33.0490953439023" cy="49.24133346424186" r="18.748808427747214" fill="white" opacity="0.3"/><circle cx="57.87438643517717" cy="284.58205497727454" r="18.896993210618046" fill="white" opacity="0.3"/><circle cx="246.15384828732854" cy="489.04262424926185" r="6.272591137080709" fill="white" opacity="0.3"/><circle cx="399.37741565069035" cy="372.3857370918523" r="5.96665729758454" fill="white" opacity="0.3"/><circle cx="422.67780671329155" cy="169.73461192109173" r="11.77653980826271" fill="white" opacity="0.3"/><circle cx="112.1819586162192" cy="576.2772307638421" r="13.115560462578378" fill="white" opacity="0.3"/><circle cx="731.3992103296032" cy="79.86168338508466" r="12.378076989809808" fill="white" opacity="0.3"/><circle cx="627.5815573217023" cy="575.996679340854" r="11.783047869032705" fill="white" opacity="0.3"/><circle cx="460.7883533261836" cy="75.35746710107082" r="5.839184054827779" fill="white" opacity="0.3"/><circle cx="513.6091747083971" cy="260.26309272636234" r="9.25521287000338" fill="white" opacity="0.3"/><circle cx="562.8238273994637" cy="259.6719196925025" r="10.927198678081146" fill="white" opacity="0.3"/><circle cx="124.55322005576991" cy="2.516717803454238" r="9.290042109757984" fill="white" opacity="0.3"/><circle cx="19.269972316594508" cy="229.34805269669124" r="14.416908225594938" fill="white" opacity="0.3"/><circle cx="689.4570461674872" cy="166.50253993933285" r="12.111730372699189" fill="white" opacity="0.3"/><circle cx="577.3057486540412" cy="550.5400062612107" r="9.588356810338018" fill="white" opacity="0.3"/><circle cx="640.9203923119148" cy="138.703159374586" r="9.227636591983218" fill="white" opacity="0.3"/><circle cx="180.16035954680686" cy="408.7854534148275" r="14.225956872479728" fill="white" opacity="0.3"/><circle cx="355.1379452378144" cy="163.64762736804025" r="5.1488272216129864" fill="white" opacity="0.3"/><circle cx="586.5487087207009" cy="356.0641896428257" r="6.747522104125686" fill="white" opacity="0.3"/><circle cx="259.9143836950394" cy="25.45182224460314" r="15.817904854051434" fill="white" opacity="0.3"/><circle cx="416.4923873663963" cy="442.4914959377012" r="12.504816755657261" fill="white" opacity="0.3"/><circle cx="52.124421462590306" cy="412.0291648809302" r="10.630124580038185" fill="white" opacity="0.3"/><circle cx="603.0902919006517" cy="238.29687385216013" r="9.344490054913127" fill="white" opacity="0.3"/><circle cx="209.12186366727772" cy="85.96754807356383" r="14.384051158877874" fill="white" opacity="0.3"/><circle cx="262.3524514868368" cy="468.43222641471857" r="10.427757114288998" fill="white" opacity="0.3"/><circle cx="699.4253414447533" cy="326.89748035133954" r="7.659727589716721" fill="white" opacity="0.3"/><circle cx="594.3850607280173" cy="119.7193355113172" r="14.904543413977326" fill="white" opacity="0.3"/><circle cx="95.04351781896014" cy="63.77825783690272" r="12.679928883234618" fill="white" opacity="0.3"/><circle cx="529.6704476153537" cy="24.931964504873694" r="11.833567336372294" fill="white" opacity="0.3"/><circle cx="528.9542046384745" cy="330.59344168685726" r="16.11670780438795" fill="white" opacity="0.3"/><circle cx="177.1816283560722" cy="139.78255353646387" r="7.975628724215639" fill="white" opacity="0.3"/><circle cx="437.629749395857" cy="457.59218875210826" r="9.759104461821238" fill="white" opacity="0.3"/><circle cx="433.33292927049956" cy="48.75038695618259" r="10.561529550810793" fill="white" opacity="0.3"/><circle cx="25.327707170229186" cy="173.80679459610747" r="17.47343705148274" fill="white" opacity="0.3"/><circle cx="51.17621967950381" cy="85.72103085150944" r="19.433790612823692" fill="white" opacity="0.3"/><circle cx="210.92010205001213" cy="181.09681394604058" r="8.130022105650703" fill="white" opacity="0.3"/><circle cx="373.5598622441415" cy="80.308297454052" r="17.083041565451715" fill="white" opacity="0.3"/><circle cx="213.9828354314697" cy="205.90874187047734" r="17.7316250669518" fill="white" opacity="0.3"/><circle cx="176.06894625968286" cy="399.3024797885948" r="13.53029372831246" fill="white" opacity="0.3"/><circle cx="220.22051725578908" cy="540.2095694737716" r="9.907838020802366" fill="white" opacity="0.3"/><circle cx="206.30197217102832" cy="529.0824608357543" r="12.029318504313649" fill="white" opacity="0.3"/><circle cx="326.7516131590159" cy="129.2933576711688" r="8.392467616966506" fill="white" opacity="0.3"/><circle cx="323.8602077312245" cy="331.77157597218854" r="17.12711479163872" fill="white" opacity="0.3"/><circle cx="116.22013087399327" cy="15.206331863515832" r="12.898191177724524" fill="white" opacity="0.3"/><circle cx="446.73662717066776" cy="59.150879827189115" r="10.189622722151785" fill="white" opacity="0.3"/><circle cx="700.0621444198442" cy="26.574089683102976" r="13.596849101044713" fill="white" opacity="0.3"/><circle cx="352.879611037523" cy="467.15992531020316" r="11.166489486462487" fill="white" opacity="0.3"/><circle cx="424.8514330423662" cy="150.35259842217366" r="15.849779539231154" fill="white" opacity="0.3"/><circle cx="79.16916621633607" cy="203.21745615195925" r="12.625180131968355" fill="white" opacity="0.3"/><circle cx="429.8635829591981" cy="230.64261053748402" r="6.396150562511501" fill="white" opacity="0.3"/><circle cx="163.52179121460858" cy="242.86617751827848" r="18.692333212012127" fill="white" opacity="0.3"/><circle cx="9.603457576587093" cy="409.989256873506" r="16.34082035477884" fill="white" opacity="0.3"/><circle cx="245.7555896682013" cy="204.4402487778797" r="5.287921038467516" fill="white" opacity="0.3"/><circle cx="676.3806863259757" cy="27.649057469373737" r="7.424659693098608" fill="white" opacity="0.3"/><circle cx="466.62337481486935" cy="546.9527244828643" r="15.55299719857257" fill="white" opacity="0.3"/><circle cx="618.9861876251285" cy="76.30293290955821" r="19.73067781406374" fill="white" opacity="0.3"/><circle cx="39.22079481068845" cy="471.04491565419596" r="16.58060551962022" fill="white" opacity="0.3"/><circle cx="747.9684718059567" cy="285.7534163872379" r="18.545131284745164" fill="white" opacity="0.3"/><circle cx="571.0319669841698" cy="232.2452686328753" r="11.199732546600263" fill="white" opacity="0.3"/><circle cx="104.2026681827692" cy="75.46587529962096" r="13.633447118555301" fill="white" opacity="0.3"/><circle cx="773.4015718447092" cy="496.9800487666769" r="9.335394649854864" fill="white" opacity="0.3"/><circle cx="479.311181825661" cy="139.09212977646365" r="9.840396535453717" fill="white" opacity="0.3"/><circle cx="68.87269012901376" cy="380.0696540851985" r="17.173514039342876" fill="white" opacity="0.3"/><circle cx="759.6231099207032" cy="550.2499463248037" r="9.524912235139265" fill="white" opacity="0.3"/><circle cx="712.0252863112704" cy="423.8916708818523" r="9.968287971416146" fill="white" opacity="0.3"/><circle cx="723.1809643970457" cy="23.047880769930963" r="6.307003118043463" fill="white" opacity="0.3"/><circle cx="182.65689377353107" cy="246.1685850864459" r="19.139484107739356" fill="white" opacity="0.3"/><circle cx="232.98042522215195" cy="469.71240892256094" r="19.984635394146256" fill="white" opacity="0.3"/><circle cx="519.0266198528826" cy="532.4337049871402" r="7.457934185939425" fill="white" opacity="0.3"/><circle cx="667.2171709522386" cy="155.84362094965448" r="12.964379899655102" fill="white" opacity="0.3"/><circle cx="415.5182128387264" cy="340.9654549452234" r="19.869122339565656" fill="white" opacity="0.3"/><circle cx="28.64612548753689" cy="587.982706220834" r="16.73085969701618" fill="white" opacity="0.3"/><circle cx="538.6722201649835" cy="273.86713490407175" r="19.17276411325109" fill="white" opacity="0.3"/><circle cx="502.43684276898983" cy="310.0421071328115" r="5.309385893292575" fill="white" opacity="0.3"/><circle cx="16.827918748710946" cy="515.8040900380863" r="14.284996290434934" fill="white" opacity="0.3"/><circle cx="282.902917594777" cy="185.93648997444816" r="5.824087456043746" fill="white" opacity="0.3"/><circle cx="234.6417465490821" cy="541.1937217955481" r="9.6297178626666" fill="white" opacity="0.3"/><circle cx="377.0934884442441" cy="273.35173572534114" r="15.839637589811169" fill="white" opacity="0.3"/><circle cx="629.5763034967871" cy="309.0525588948471" r="17.307817810133308" fill="white" opacity="0.3"/><circle cx="260.0416194296375" cy="567.2902429072053" r="14.288672653941628" fill="white" opacity="0.3"/><circle cx="745.4905994284558" cy="521.7254649580501" r="8.300742564659393" fill="white" opacity="0.3"/><circle cx="717.4071324508197" cy="489.245943020132" r="14.85000600947446" fill="white" opacity="0.3"/><circle cx="101.93074652338456" cy="528.9892967454153" r="12.882006072858188" fill="white" opacity="0.3"/><circle cx="749.3976149594059" cy="491.4606372771677" r="5.938653674543119" fill="white" opacity="0.3"/><circle cx="205.58238047632892" cy="524.612943297504" r="6.155264175063049" fill="white" opacity="0.3"/><circle cx="82.83174890549168" cy="373.3769121961459" r="15.383121145312034" fill="white" opacity="0.3"/><circle cx="696.2562504099179" cy="11.155873695068031" r="6.9145768506308265" fill="white" opacity="0.3"/><circle cx="269.1545255415835" cy="340.7853777872452" r="10.125412756429698" fill="white" opacity="0.3"/><circle cx="388.4027221560962" cy="418.38659766037927" r="8.7142728757465" fill="white" opacity="0.3"/><circle cx="34.00569222998868" cy="556.249941375138" r="19.66436287813061" fill="white" opacity="0.3"/><circle cx="501.59814043749583" cy="39.94805546413374" r="13.200010469764504" fill="white" opacity="0.3"/>
  </g>
  
  <!-- Text -->
  <g filter="url(#shadow)">
    <text x="400" y="280" font-family="Arial, sans-serif" font-size="48" font-weight="bold" fill="#333333" text-anchor="middle">
      Master Batches
    </text>
    <text x="400" y="330" font-family="Arial, sans-serif" font-size="24" fill="#333333" text-anchor="middle" opacity="0.8">
      Color Concentrates
    </text>
  </g>
  
  <!-- Watermark -->
  <text x="400" y="570" font-family="Arial, sans-serif" font-size="14" fill="#333333" text-anchor="middle" opacity="0.5">
    Arihant Polyplast • Premium Quality Materials
  </text>
</svg>