<?xml version="1.0" encoding="UTF-8"?>
<svg width="800" height="600" xmlns="http://www.w3.org/2000/svg">
  <defs>
    <radialGradient id="grad-nylon" cx="50%" cy="50%" r="50%">
      <stop offset="0%" style="stop-color:#F5F5F5;stop-opacity:1" />
      <stop offset="100%" style="stop-color:#c2c2c2;stop-opacity:1" />
    </radialGradient>
    <filter id="shadow">
      <feGaussianBlur in="SourceAlpha" stdDeviation="3"/>
      <feOffset dx="0" dy="2" result="offsetblur"/>
      <feComponentTransfer>
        <feFuncA type="linear" slope="0.3"/>
      </feComponentTransfer>
      <feMerge> 
        <feMergeNode/>
        <feMergeNode in="SourceGraphic"/> 
      </feMerge>
    </filter>
  </defs>
  
  <!-- Background -->
  <rect width="800" height="600" fill="url(#grad-nylon)"/>
  
  <!-- Granule circles pattern -->
  <g opacity="0.4">
    <circle cx="602.7312795496096" cy="375.9611231120376" r="13.42279243539767" fill="white" opacity="0.3"/><circle cx="45.51488208783576" cy="90.42854226975805" r="10.574198005408551" fill="white" opacity="0.3"/><circle cx="75.53991139171599" cy="340.4088618797658" r="10.313795495064724" fill="white" opacity="0.3"/><circle cx="224.99757276711279" cy="397.34335228268964" r="8.99129807772541" fill="white" opacity="0.3"/><circle cx="129.1305321333051" cy="85.98241486299489" r="14.62349175767671" fill="white" opacity="0.3"/><circle cx="516.0034319582331" cy="257.8558755522699" r="15.01080581284147" fill="white" opacity="0.3"/><circle cx="421.9908013303374" cy="359.7060231484302" r="8.37770251441001" fill="white" opacity="0.3"/><circle cx="790.1935920132813" cy="219.45309141393892" r="9.292217327114571" fill="white" opacity="0.3"/><circle cx="340.25034606983377" cy="30.313407995002926" r="12.545847674652329" fill="white" opacity="0.3"/><circle cx="684.746870109615" cy="62.40665357445971" r="5.717093591904226" fill="white" opacity="0.3"/><circle cx="304.7182526904221" cy="150.65060946288003" r="9.560444513810602" fill="white" opacity="0.3"/><circle cx="487.6371926057429" cy="41.91239482999842" r="8.168167592832184" fill="white" opacity="0.3"/><circle cx="686.3839135805333" cy="174.40550248942588" r="13.019197162240037" fill="white" opacity="0.3"/><circle cx="210.266447807527" cy="9.809289796681298" r="16.51532861320797" fill="white" opacity="0.3"/><circle cx="353.2894796303231" cy="70.32520795563886" r="5.2230693546166505" fill="white" opacity="0.3"/><circle cx="364.5044719505888" cy="540.1616740243519" r="9.02935356435432" fill="white" opacity="0.3"/><circle cx="464.0696727616823" cy="555.3739240471447" r="14.849398399900732" fill="white" opacity="0.3"/><circle cx="788.1060335269408" cy="304.25511616548124" r="14.544642337253716" fill="white" opacity="0.3"/><circle cx="544.0292884175093" cy="91.87089235169861" r="15.20374742571444" fill="white" opacity="0.3"/><circle cx="628.3126116162761" cy="520.392374266945" r="11.7008919642999" fill="white" opacity="0.3"/><circle cx="513.2779152772036" cy="163.1290610808672" r="12.51423605910395" fill="white" opacity="0.3"/><circle cx="273.0234693652971" cy="487.55255216332006" r="14.720371981907896" fill="white" opacity="0.3"/><circle cx="509.7487296908072" cy="203.50279663563964" r="6.796294902883079" fill="white" opacity="0.3"/><circle cx="253.98026453037508" cy="59.01284257832056" r="6.359167168967879" fill="white" opacity="0.3"/><circle cx="258.1472741511312" cy="467.16410005002905" r="10.338618411910433" fill="white" opacity="0.3"/><circle cx="93.592501334704" cy="161.57984792862084" r="5.223761239237894" fill="white" opacity="0.3"/><circle cx="400.34806998130915" cy="408.9280256180017" r="9.467868894420878" fill="white" opacity="0.3"/><circle cx="635.8546410701238" cy="318.8519997139131" r="10.91303018570325" fill="white" opacity="0.3"/><circle cx="366.74009327893503" cy="90.03984104637294" r="18.940106771286374" fill="white" opacity="0.3"/><circle cx="433.9566474291042" cy="586.4044628191045" r="8.735817031753266" fill="white" opacity="0.3"/><circle cx="445.55342621583674" cy="50.10592756557819" r="15.774010131661719" fill="white" opacity="0.3"/><circle cx="75.14951026072953" cy="101.99293021334978" r="11.967649944482362" fill="white" opacity="0.3"/><circle cx="522.624681266091" cy="538.6505987540368" r="17.592223128468657" fill="white" opacity="0.3"/><circle cx="301.85244816325564" cy="77.42254197575356" r="12.137422955000321" fill="white" opacity="0.3"/><circle cx="702.1512718746426" cy="408.77403367911387" r="18.314815782185896" fill="white" opacity="0.3"/><circle cx="90.3705901456818" cy="556.3746981434954" r="7.2518107474730975" fill="white" opacity="0.3"/><circle cx="333.8752395878218" cy="548.9739168012728" r="18.11091906753891" fill="white" opacity="0.3"/><circle cx="468.6785340350211" cy="517.3118296547979" r="11.204600562225982" fill="white" opacity="0.3"/><circle cx="751.8845818097777" cy="213.26614120060782" r="11.10276179105842" fill="white" opacity="0.3"/><circle cx="703.7689044804257" cy="518.9486024355214" r="10.455799782159527" fill="white" opacity="0.3"/><circle cx="421.46349201473345" cy="492.0938758781223" r="9.696108152081248" fill="white" opacity="0.3"/><circle cx="531.9188281527242" cy="132.80895428480187" r="17.78907707551923" fill="white" opacity="0.3"/><circle cx="260.1868337673477" cy="58.993546714075926" r="17.399640770748917" fill="white" opacity="0.3"/><circle cx="728.2153722616786" cy="308.5482876472142" r="17.97064552082208" fill="white" opacity="0.3"/><circle cx="784.2564240305825" cy="535.9820910776461" r="8.451894181933024" fill="white" opacity="0.3"/><circle cx="785.6070656831813" cy="398.4731497871231" r="17.50718805061173" fill="white" opacity="0.3"/><circle cx="142.27135887154506" cy="572.0862901475404" r="6.533026870245472" fill="white" opacity="0.3"/><circle cx="99.83615346148662" cy="591.3421136092303" r="6.3999467274179365" fill="white" opacity="0.3"/><circle cx="436.0021949500096" cy="43.943421226942434" r="14.01468277597025" fill="white" opacity="0.3"/><circle cx="287.0103659831168" cy="431.9660051498016" r="14.722920551985817" fill="white" opacity="0.3"/><circle cx="632.306465472579" cy="228.32436975191482" r="6.053769700981695" fill="white" opacity="0.3"/><circle cx="382.70750452029" cy="299.9992904579922" r="15.712400735530299" fill="white" opacity="0.3"/><circle cx="82.88696544859881" cy="51.8817707339235" r="17.56154630410441" fill="white" opacity="0.3"/><circle cx="656.7403861913189" cy="593.5513954963018" r="8.249759248336337" fill="white" opacity="0.3"/><circle cx="326.9332538707412" cy="264.12929427379805" r="10.408993245798143" fill="white" opacity="0.3"/><circle cx="710.4132472372679" cy="492.70308685655573" r="13.677555286274044" fill="white" opacity="0.3"/><circle cx="617.2610773336011" cy="357.55818739429424" r="17.849629267115986" fill="white" opacity="0.3"/><circle cx="774.5649055089991" cy="144.03484367597423" r="19.582033509805306" fill="white" opacity="0.3"/><circle cx="37.35769330182386" cy="501.7829522103262" r="7.834265104262968" fill="white" opacity="0.3"/><circle cx="315.3883467136309" cy="398.9732261381194" r="12.4473655722006" fill="white" opacity="0.3"/><circle cx="552.5538824292587" cy="411.8637354424349" r="8.888647611342488" fill="white" opacity="0.3"/><circle cx="393.36591364079663" cy="443.5256845799871" r="10.306971554930369" fill="white" opacity="0.3"/><circle cx="146.26729837629213" cy="376.1949657091939" r="9.627977763639638" fill="white" opacity="0.3"/><circle cx="222.21314064618315" cy="66.87727572631599" r="11.974855972952156" fill="white" opacity="0.3"/><circle cx="314.2128877058932" cy="376.99301645285715" r="12.192040823292952" fill="white" opacity="0.3"/><circle cx="704.7977670770074" cy="131.5598943512125" r="9.405851196037048" fill="white" opacity="0.3"/><circle cx="394.4313098316677" cy="14.530577662252565" r="15.042517469572855" fill="white" opacity="0.3"/><circle cx="720.2358525925082" cy="599.1774343141495" r="5.337979989869313" fill="white" opacity="0.3"/><circle cx="83.26815395795207" cy="380.21705672450935" r="10.080454224882267" fill="white" opacity="0.3"/><circle cx="274.5262754445076" cy="260.52513819341624" r="18.698112637827684" fill="white" opacity="0.3"/><circle cx="672.8294676661708" cy="251.02260119549348" r="10.176103515620404" fill="white" opacity="0.3"/><circle cx="383.8783538371459" cy="221.1565366572912" r="12.340210707443674" fill="white" opacity="0.3"/><circle cx="143.96448620890254" cy="201.1878508646348" r="13.385084193622067" fill="white" opacity="0.3"/><circle cx="715.7076119609022" cy="138.80748631795825" r="10.84363533313763" fill="white" opacity="0.3"/><circle cx="320.13809641919113" cy="292.89289524009956" r="13.566457988055243" fill="white" opacity="0.3"/><circle cx="153.73162029589534" cy="422.0197026762565" r="12.517125048605546" fill="white" opacity="0.3"/><circle cx="680.6576660055724" cy="349.282321849893" r="12.767499892609305" fill="white" opacity="0.3"/><circle cx="77.83270235858559" cy="40.75752862905215" r="6.59421039800562" fill="white" opacity="0.3"/><circle cx="479.65217350851617" cy="273.4896157783279" r="7.168342085549528" fill="white" opacity="0.3"/><circle cx="402.6724641840647" cy="321.2432509644258" r="13.263962004078302" fill="white" opacity="0.3"/><circle cx="655.9482417984146" cy="28.65002029864847" r="7.000602483604662" fill="white" opacity="0.3"/><circle cx="62.29612750867162" cy="594.7799775905096" r="12.72342162658213" fill="white" opacity="0.3"/><circle cx="248.55157793002735" cy="566.4005929463272" r="8.648611607951743" fill="white" opacity="0.3"/><circle cx="784.7590643681252" cy="256.6047661421464" r="12.856013293649601" fill="white" opacity="0.3"/><circle cx="107.90527236028682" cy="224.1545663816766" r="16.36492145821012" fill="white" opacity="0.3"/><circle cx="517.6857218104594" cy="403.5837298756418" r="17.3322925632881" fill="white" opacity="0.3"/><circle cx="32.97504960782618" cy="189.73328099340378" r="7.002713328641135" fill="white" opacity="0.3"/><circle cx="74.56754632689977" cy="414.3631353686507" r="15.802568415812638" fill="white" opacity="0.3"/><circle cx="90.64942210189582" cy="451.1065288879754" r="7.178835219250559" fill="white" opacity="0.3"/><circle cx="234.8266297764483" cy="304.6452954245853" r="17.295042465252163" fill="white" opacity="0.3"/><circle cx="701.0243119635485" cy="236.1019372647761" r="5.8306739485753685" fill="white" opacity="0.3"/><circle cx="27.456987778112918" cy="211.1924431285051" r="6.762392461133714" fill="white" opacity="0.3"/><circle cx="590.9285519608933" cy="257.04537442732385" r="5.945986066260326" fill="white" opacity="0.3"/><circle cx="647.7282236519256" cy="499.846532793939" r="19.761633663000588" fill="white" opacity="0.3"/><circle cx="386.78944909443135" cy="68.85056122045658" r="12.993533491078797" fill="white" opacity="0.3"/><circle cx="47.222862416148544" cy="383.3534820588359" r="15.49216530946266" fill="white" opacity="0.3"/><circle cx="637.2703416006725" cy="367.19462098692213" r="7.506038827217871" fill="white" opacity="0.3"/><circle cx="181.1816750389031" cy="553.4870622020159" r="14.805944169838712" fill="white" opacity="0.3"/><circle cx="15.453749727044297" cy="184.21554040061972" r="18.130977152259135" fill="white" opacity="0.3"/><circle cx="620.8519370051655" cy="351.01294763202105" r="5.374698040840174" fill="white" opacity="0.3"/>
  </g>
  
  <!-- Text -->
  <g filter="url(#shadow)">
    <text x="400" y="280" font-family="Arial, sans-serif" font-size="48" font-weight="bold" fill="#333333" text-anchor="middle">
      Nylon PA6/PA66
    </text>
    <text x="400" y="330" font-family="Arial, sans-serif" font-size="24" fill="#333333" text-anchor="middle" opacity="0.8">
      Engineering Plastic Granules
    </text>
  </g>
  
  <!-- Watermark -->
  <text x="400" y="570" font-family="Arial, sans-serif" font-size="14" fill="#333333" text-anchor="middle" opacity="0.5">
    Arihant Polyplast • Premium Quality Materials
  </text>
</svg>