<?xml version="1.0" encoding="UTF-8"?>
<svg width="800" height="600" xmlns="http://www.w3.org/2000/svg">
  <defs>
    <radialGradient id="grad-pbt" cx="50%" cy="50%" r="50%">
      <stop offset="0%" style="stop-color:#FFF8DC;stop-opacity:1" />
      <stop offset="100%" style="stop-color:#ccc5a9;stop-opacity:1" />
    </radialGradient>
    <filter id="shadow">
      <feGaussianBlur in="SourceAlpha" stdDeviation="3"/>
      <feOffset dx="0" dy="2" result="offsetblur"/>
      <feComponentTransfer>
        <feFuncA type="linear" slope="0.3"/>
      </feComponentTransfer>
      <feMerge> 
        <feMergeNode/>
        <feMergeNode in="SourceGraphic"/> 
      </feMerge>
    </filter>
  </defs>
  
  <!-- Background -->
  <rect width="800" height="600" fill="url(#grad-pbt)"/>
  
  <!-- Granule circles pattern -->
  <g opacity="0.4">
    <circle cx="312.91269662440016" cy="564.0056367094402" r="9.660012463630446" fill="white" opacity="0.3"/><circle cx="275.63628222535135" cy="380.20339316099205" r="6.687928261887379" fill="white" opacity="0.3"/><circle cx="789.8462542195907" cy="396.5445246312749" r="8.391856113942861" fill="white" opacity="0.3"/><circle cx="164.13771075369476" cy="202.4746195486227" r="11.040413421230884" fill="white" opacity="0.3"/><circle cx="733.8124139767937" cy="336.409164120653" r="14.939581395474942" fill="white" opacity="0.3"/><circle cx="634.5457006820849" cy="286.24642581428253" r="15.226887685582685" fill="white" opacity="0.3"/><circle cx="570.500887242535" cy="505.2421196154652" r="16.970122475166754" fill="white" opacity="0.3"/><circle cx="161.83940472877384" cy="420.23515463141206" r="13.055964777967336" fill="white" opacity="0.3"/><circle cx="248.4137972118182" cy="173.725143478124" r="17.798937925055498" fill="white" opacity="0.3"/><circle cx="207.3216267505077" cy="108.00581300057446" r="15.133524690925103" fill="white" opacity="0.3"/><circle cx="278.9049013877275" cy="505.288777412968" r="19.391409423268485" fill="white" opacity="0.3"/><circle cx="541.6583595312806" cy="249.1780184021298" r="10.328797609271785" fill="white" opacity="0.3"/><circle cx="290.0947021170154" cy="166.45118625790357" r="19.744238633071983" fill="white" opacity="0.3"/><circle cx="196.52695740408123" cy="242.01984163655584" r="18.454367641224813" fill="white" opacity="0.3"/><circle cx="226.40378873145997" cy="550.6838520329773" r="7.033227981575867" fill="white" opacity="0.3"/><circle cx="504.9923337509395" cy="585.9421114911638" r="6.877811818233945" fill="white" opacity="0.3"/><circle cx="328.84242058262555" cy="131.70808135106117" r="9.97300688532537" fill="white" opacity="0.3"/><circle cx="365.6732655809533" cy="429.0012781059597" r="13.315730056839781" fill="white" opacity="0.3"/><circle cx="396.3674799421506" cy="181.39470173424388" r="11.868619488795233" fill="white" opacity="0.3"/><circle cx="555.5547634374041" cy="249.64861976295083" r="6.880755988078146" fill="white" opacity="0.3"/><circle cx="92.58159072633845" cy="502.28182709821425" r="11.273110440555453" fill="white" opacity="0.3"/><circle cx="610.2164737960426" cy="47.46048947517983" r="11.800464937391993" fill="white" opacity="0.3"/><circle cx="181.53556367474576" cy="330.6557723457507" r="16.999862462818143" fill="white" opacity="0.3"/><circle cx="700.6280548565708" cy="510.84744623966895" r="8.805717480449632" fill="white" opacity="0.3"/><circle cx="502.9763437674431" cy="45.90389381606299" r="9.058285882762554" fill="white" opacity="0.3"/><circle cx="114.82548207521619" cy="183.7813987166312" r="15.221871319028851" fill="white" opacity="0.3"/><circle cx="52.538675375911126" cy="196.9677627161256" r="10.895933734854353" fill="white" opacity="0.3"/><circle cx="607.0409725729867" cy="127.53307094077049" r="17.432214245408055" fill="white" opacity="0.3"/><circle cx="219.46226525619315" cy="306.48572915015757" r="14.557820092029129" fill="white" opacity="0.3"/><circle cx="507.40885865573756" cy="119.2282105666371" r="19.128542032289168" fill="white" opacity="0.3"/><circle cx="294.653665163846" cy="268.7810086930876" r="13.816066495398573" fill="white" opacity="0.3"/><circle cx="760.2131931564978" cy="257.83539131359095" r="8.827385055460285" fill="white" opacity="0.3"/><circle cx="89.14596581357976" cy="216.66476772528762" r="17.06092754237777" fill="white" opacity="0.3"/><circle cx="552.886021619325" cy="108.9755290948004" r="12.451662805976198" fill="white" opacity="0.3"/><circle cx="527.0326591874216" cy="487.91685318249085" r="10.632415586168989" fill="white" opacity="0.3"/><circle cx="738.7060509754212" cy="526.9247119964389" r="19.935995244977804" fill="white" opacity="0.3"/><circle cx="486.34181231528305" cy="227.60081412276233" r="13.213531010988005" fill="white" opacity="0.3"/><circle cx="34.5588588128269" cy="562.3070532785322" r="18.172682553134226" fill="white" opacity="0.3"/><circle cx="787.7804708380074" cy="572.4799567419057" r="10.58192969596084" fill="white" opacity="0.3"/><circle cx="415.497988445058" cy="436.61866541543384" r="15.635991472956366" fill="white" opacity="0.3"/><circle cx="255.78762762415215" cy="452.1205497430815" r="12.557129387978176" fill="white" opacity="0.3"/><circle cx="306.07472730262407" cy="354.27556954101675" r="19.640628800382412" fill="white" opacity="0.3"/><circle cx="599.3210618353378" cy="479.8463016737211" r="17.433795905098297" fill="white" opacity="0.3"/><circle cx="791.0766503495659" cy="210.1732807428255" r="18.376419996557015" fill="white" opacity="0.3"/><circle cx="507.2806476423385" cy="568.3823851716238" r="18.569586364919573" fill="white" opacity="0.3"/><circle cx="261.5308071086373" cy="177.18036167623876" r="7.966825663152668" fill="white" opacity="0.3"/><circle cx="144.2726459594245" cy="319.2678866966742" r="11.461471526396341" fill="white" opacity="0.3"/><circle cx="243.23164659428346" cy="230.69509919412044" r="10.322168693659638" fill="white" opacity="0.3"/><circle cx="225.2087059138077" cy="194.79097775655404" r="12.852758073944143" fill="white" opacity="0.3"/><circle cx="604.0768699094272" cy="334.02312671771773" r="9.690091235753355" fill="white" opacity="0.3"/><circle cx="682.4857730101653" cy="263.55800464259323" r="11.260307585507697" fill="white" opacity="0.3"/><circle cx="633.8650526275649" cy="410.57982869055274" r="19.186964500027443" fill="white" opacity="0.3"/><circle cx="575.6336111608468" cy="254.7546494614333" r="8.983278140514514" fill="white" opacity="0.3"/><circle cx="261.7371069393026" cy="205.23950671826006" r="18.179870653537353" fill="white" opacity="0.3"/><circle cx="114.9507119182311" cy="102.84940743185511" r="10.049183990479857" fill="white" opacity="0.3"/><circle cx="480.8977977122045" cy="294.9434062737077" r="15.252007768230154" fill="white" opacity="0.3"/><circle cx="27.329240597816717" cy="149.47132586320834" r="7.437423683345056" fill="white" opacity="0.3"/><circle cx="178.82482387118702" cy="219.3256832297435" r="13.196033122703527" fill="white" opacity="0.3"/><circle cx="547.9441140353326" cy="427.60137844305376" r="11.60241379542225" fill="white" opacity="0.3"/><circle cx="730.3639588529384" cy="563.3144911164333" r="16.220874160767845" fill="white" opacity="0.3"/><circle cx="668.6608888687113" cy="560.4561224619508" r="8.182094185067054" fill="white" opacity="0.3"/><circle cx="145.09629867996105" cy="386.92150849146117" r="6.585470604122751" fill="white" opacity="0.3"/><circle cx="567.1126408046024" cy="305.9581643861072" r="12.313708591712533" fill="white" opacity="0.3"/><circle cx="459.8847796927836" cy="405.3270050446133" r="16.97101524745738" fill="white" opacity="0.3"/><circle cx="310.0714696681452" cy="448.3235166170617" r="10.537698587515493" fill="white" opacity="0.3"/><circle cx="370.2044098596444" cy="0.23690413391694864" r="6.803866759795262" fill="white" opacity="0.3"/><circle cx="147.20527596632306" cy="272.0539049496445" r="16.729558542053304" fill="white" opacity="0.3"/><circle cx="496.6407905569086" cy="148.55106444137627" r="7.710103204962371" fill="white" opacity="0.3"/><circle cx="334.66114782256466" cy="478.53516605137094" r="15.032804692220372" fill="white" opacity="0.3"/><circle cx="426.2942252666417" cy="245.1340410212034" r="17.64502444678356" fill="white" opacity="0.3"/><circle cx="495.42437859443635" cy="438.0039418999983" r="9.785968291873317" fill="white" opacity="0.3"/><circle cx="193.32483655724138" cy="159.87812213774842" r="12.695574127654396" fill="white" opacity="0.3"/><circle cx="45.84854013960262" cy="323.3442317782017" r="17.117809571118258" fill="white" opacity="0.3"/><circle cx="126.66563380338349" cy="286.1243684760738" r="14.998584931389438" fill="white" opacity="0.3"/><circle cx="774.6123460358203" cy="495.6153313243799" r="18.150811378614048" fill="white" opacity="0.3"/><circle cx="343.3397646423234" cy="409.0303042451228" r="13.882057067020579" fill="white" opacity="0.3"/><circle cx="472.45346838057634" cy="2.7772669459873223" r="15.62613631146385" fill="white" opacity="0.3"/><circle cx="697.4561137537792" cy="525.8388190106268" r="19.459741928391075" fill="white" opacity="0.3"/><circle cx="730.1939961347332" cy="522.2307269687649" r="12.19751889129591" fill="white" opacity="0.3"/><circle cx="2.687038800970054" cy="326.54399462456865" r="14.679879872577331" fill="white" opacity="0.3"/><circle cx="344.13111227392017" cy="11.41038982862652" r="18.643221571805256" fill="white" opacity="0.3"/><circle cx="336.7012529525918" cy="271.22633034575864" r="19.41752778855351" fill="white" opacity="0.3"/><circle cx="10.410931291118164" cy="595.4956801544813" r="14.156824805749112" fill="white" opacity="0.3"/><circle cx="85.4275873308575" cy="16.624367245199643" r="6.504234713010828" fill="white" opacity="0.3"/><circle cx="678.8697032356587" cy="128.12690461975683" r="12.955811752348877" fill="white" opacity="0.3"/><circle cx="110.7032366114285" cy="183.59727272580736" r="13.394475373132876" fill="white" opacity="0.3"/><circle cx="314.61054300484614" cy="280.597015185289" r="10.950558417957023" fill="white" opacity="0.3"/><circle cx="37.59328059588203" cy="13.472086623122536" r="5.236161447244441" fill="white" opacity="0.3"/><circle cx="299.7519844501006" cy="346.58802376607196" r="15.752569107841051" fill="white" opacity="0.3"/><circle cx="392.4770690351453" cy="500.96670081930523" r="16.497373739742876" fill="white" opacity="0.3"/><circle cx="470.33047937924886" cy="475.6943889825562" r="17.079416939379584" fill="white" opacity="0.3"/><circle cx="768.2361546971247" cy="459.0564229107895" r="18.90830491207004" fill="white" opacity="0.3"/><circle cx="777.247794803819" cy="440.8687351238492" r="8.955675413308471" fill="white" opacity="0.3"/><circle cx="671.6943895113719" cy="332.5078794761945" r="19.031788178284337" fill="white" opacity="0.3"/><circle cx="360.2999753967882" cy="522.2544380182873" r="11.250935992174272" fill="white" opacity="0.3"/><circle cx="599.5222135015593" cy="211.00362970752568" r="5.337337628833813" fill="white" opacity="0.3"/><circle cx="666.9950048307564" cy="94.3162658852001" r="18.168904394469056" fill="white" opacity="0.3"/><circle cx="659.5323665279211" cy="183.77205073616562" r="15.046435972232928" fill="white" opacity="0.3"/><circle cx="642.276206837348" cy="170.9113011474009" r="5.355254137990678" fill="white" opacity="0.3"/><circle cx="522.5771821185047" cy="553.9144494103039" r="15.759323813099247" fill="white" opacity="0.3"/>
  </g>
  
  <!-- Text -->
  <g filter="url(#shadow)">
    <text x="400" y="280" font-family="Arial, sans-serif" font-size="48" font-weight="bold" fill="#333333" text-anchor="middle">
      PBT
    </text>
    <text x="400" y="330" font-family="Arial, sans-serif" font-size="24" fill="#333333" text-anchor="middle" opacity="0.8">
      Polyester Granules
    </text>
  </g>
  
  <!-- Watermark -->
  <text x="400" y="570" font-family="Arial, sans-serif" font-size="14" fill="#333333" text-anchor="middle" opacity="0.5">
    Arihant Polyplast • Premium Quality Materials
  </text>
</svg>