<?xml version="1.0" encoding="UTF-8"?>
<svg width="800" height="600" xmlns="http://www.w3.org/2000/svg">
  <defs>
    <radialGradient id="grad-pc" cx="50%" cy="50%" r="50%">
      <stop offset="0%" style="stop-color:#E8F4F8;stop-opacity:1" />
      <stop offset="100%" style="stop-color:#b5c1c5;stop-opacity:1" />
    </radialGradient>
    <filter id="shadow">
      <feGaussianBlur in="SourceAlpha" stdDeviation="3"/>
      <feOffset dx="0" dy="2" result="offsetblur"/>
      <feComponentTransfer>
        <feFuncA type="linear" slope="0.3"/>
      </feComponentTransfer>
      <feMerge> 
        <feMergeNode/>
        <feMergeNode in="SourceGraphic"/> 
      </feMerge>
    </filter>
  </defs>
  
  <!-- Background -->
  <rect width="800" height="600" fill="url(#grad-pc)"/>
  
  <!-- Granule circles pattern -->
  <g opacity="0.4">
    <circle cx="30.19903389656209" cy="416.35456362089457" r="6.3603675684285275" fill="white" opacity="0.3"/><circle cx="728.8285552225597" cy="37.365742585466435" r="14.969996751289667" fill="white" opacity="0.3"/><circle cx="409.3886520125008" cy="439.5398549792699" r="8.067987650836674" fill="white" opacity="0.3"/><circle cx="210.64851758612377" cy="82.28104082422175" r="13.673663058713668" fill="white" opacity="0.3"/><circle cx="306.27010655221767" cy="599.5049742457892" r="12.672267774268352" fill="white" opacity="0.3"/><circle cx="301.194488013679" cy="364.3357140617424" r="17.93221918623727" fill="white" opacity="0.3"/><circle cx="49.798992336206815" cy="420.6022292884499" r="5.242474773339643" fill="white" opacity="0.3"/><circle cx="443.5794095127018" cy="236.40381760420757" r="18.822499533067308" fill="white" opacity="0.3"/><circle cx="745.3551656476334" cy="543.9597077991134" r="19.249646591312928" fill="white" opacity="0.3"/><circle cx="380.59791435640216" cy="93.23341918304668" r="6.709349028280878" fill="white" opacity="0.3"/><circle cx="74.56819311399245" cy="364.7654462580015" r="19.9272646573664" fill="white" opacity="0.3"/><circle cx="101.88267453652173" cy="382.44641948247573" r="16.037011592988932" fill="white" opacity="0.3"/><circle cx="750.3985342809915" cy="94.58423074858078" r="10.03530303188017" fill="white" opacity="0.3"/><circle cx="706.9694159761418" cy="63.579667341737725" r="6.588971250247123" fill="white" opacity="0.3"/><circle cx="256.7693062421349" cy="45.675827457277165" r="14.319347504228013" fill="white" opacity="0.3"/><circle cx="471.44213716538343" cy="351.6947239267941" r="18.12175608568832" fill="white" opacity="0.3"/><circle cx="148.75339508056706" cy="481.6741877947203" r="11.803265069660892" fill="white" opacity="0.3"/><circle cx="682.0427312878408" cy="133.31520000378927" r="9.374789577214305" fill="white" opacity="0.3"/><circle cx="221.53331811436558" cy="25.89576447050348" r="6.75666507383591" fill="white" opacity="0.3"/><circle cx="753.8084893509682" cy="53.046511048936296" r="13.175214687896837" fill="white" opacity="0.3"/><circle cx="643.7899899306173" cy="320.92121618076027" r="7.629709984588835" fill="white" opacity="0.3"/><circle cx="510.11076241313333" cy="58.80772512127032" r="18.864244232278217" fill="white" opacity="0.3"/><circle cx="109.48456172201766" cy="195.13232321438622" r="10.414455841277393" fill="white" opacity="0.3"/><circle cx="293.41786608195133" cy="284.28078688143125" r="12.370766429645741" fill="white" opacity="0.3"/><circle cx="285.5152487249064" cy="50.44034954403516" r="14.8426823211263" fill="white" opacity="0.3"/><circle cx="206.04705347394238" cy="581.5321052563309" r="14.646877851247218" fill="white" opacity="0.3"/><circle cx="789.9247767338646" cy="88.61457044216456" r="19.34269639028394" fill="white" opacity="0.3"/><circle cx="209.83129223191793" cy="571.6096591357714" r="18.33723484084132" fill="white" opacity="0.3"/><circle cx="705.5801338361094" cy="170.51477132037326" r="18.256813217042748" fill="white" opacity="0.3"/><circle cx="168.14781397385144" cy="265.945290365342" r="11.993014579152222" fill="white" opacity="0.3"/><circle cx="385.4817857879133" cy="599.7189011109188" r="15.92173560663678" fill="white" opacity="0.3"/><circle cx="589.3583272068583" cy="521.973741878725" r="11.262913407802497" fill="white" opacity="0.3"/><circle cx="19.431657486580622" cy="308.83304599581186" r="5.2588179819279235" fill="white" opacity="0.3"/><circle cx="23.122740083556614" cy="384.64262384998784" r="19.61987797382961" fill="white" opacity="0.3"/><circle cx="668.221047629084" cy="301.43613874753703" r="12.270992190207757" fill="white" opacity="0.3"/><circle cx="308.11054115072994" cy="34.27770589963195" r="15.663634867700287" fill="white" opacity="0.3"/><circle cx="347.1602277032373" cy="62.171012285035744" r="17.65692534093941" fill="white" opacity="0.3"/><circle cx="380.3814631842263" cy="117.44632077852563" r="15.049827472272913" fill="white" opacity="0.3"/><circle cx="596.4418557542575" cy="275.56188426650493" r="11.940435300860091" fill="white" opacity="0.3"/><circle cx="526.0737105134069" cy="29.95654277257822" r="7.994821533881574" fill="white" opacity="0.3"/><circle cx="502.94033256995084" cy="318.9060050962097" r="14.00556270950299" fill="white" opacity="0.3"/><circle cx="193.8701807190113" cy="298.4707723029062" r="19.955855746034473" fill="white" opacity="0.3"/><circle cx="329.1286383604589" cy="583.458311467706" r="6.132476052314526" fill="white" opacity="0.3"/><circle cx="225.23933786582847" cy="503.1551280789653" r="9.04212090833651" fill="white" opacity="0.3"/><circle cx="18.038138590558894" cy="250.044334191925" r="14.481030953903153" fill="white" opacity="0.3"/><circle cx="195.93238451399043" cy="335.93767140764" r="16.795335062744233" fill="white" opacity="0.3"/><circle cx="640.0973837111733" cy="102.45188572605429" r="15.123326114763499" fill="white" opacity="0.3"/><circle cx="211.2386483407068" cy="170.86949266318607" r="9.948206015728314" fill="white" opacity="0.3"/><circle cx="585.2544456204605" cy="435.69076104156574" r="17.980852493688865" fill="white" opacity="0.3"/><circle cx="154.11685304468233" cy="408.98718303721154" r="6.654863087009017" fill="white" opacity="0.3"/><circle cx="337.5997419324073" cy="11.168894067490864" r="11.373674301783284" fill="white" opacity="0.3"/><circle cx="466.4659489879625" cy="339.40475545631057" r="12.76313634061631" fill="white" opacity="0.3"/><circle cx="2.824695517174103" cy="130.79414609752575" r="6.921243238410032" fill="white" opacity="0.3"/><circle cx="602.0446626983097" cy="503.2746229794039" r="6.896719119465322" fill="white" opacity="0.3"/><circle cx="640.411875413105" cy="477.5304903440325" r="9.683563025300812" fill="white" opacity="0.3"/><circle cx="161.18943384679784" cy="55.00827441216711" r="6.940034669409103" fill="white" opacity="0.3"/><circle cx="769.6312586578288" cy="582.9901123556944" r="7.890713659388611" fill="white" opacity="0.3"/><circle cx="509.3172472210952" cy="436.25215260790503" r="10.332788106889295" fill="white" opacity="0.3"/><circle cx="678.2889575407246" cy="235.87574251309618" r="16.525115024682595" fill="white" opacity="0.3"/><circle cx="714.62500271783" cy="590.594090862649" r="15.015591460295683" fill="white" opacity="0.3"/><circle cx="10.810119809950969" cy="571.752430427553" r="9.793646866111398" fill="white" opacity="0.3"/><circle cx="160.71086574867115" cy="457.5545762502279" r="18.204894184851064" fill="white" opacity="0.3"/><circle cx="333.95130959308386" cy="592.5739621739901" r="5.441900316017764" fill="white" opacity="0.3"/><circle cx="211.1212465230043" cy="57.81893935500606" r="19.419072288045207" fill="white" opacity="0.3"/><circle cx="298.5540096520815" cy="84.1910749119078" r="7.545143377876138" fill="white" opacity="0.3"/><circle cx="262.5414239350862" cy="418.59661134657887" r="13.166025451694303" fill="white" opacity="0.3"/><circle cx="175.15268392253063" cy="265.6215732980242" r="16.892779792834695" fill="white" opacity="0.3"/><circle cx="39.623233305053596" cy="365.9081234486363" r="19.174330914570213" fill="white" opacity="0.3"/><circle cx="698.4264085205144" cy="62.672796518825265" r="11.975162681993853" fill="white" opacity="0.3"/><circle cx="663.674805254338" cy="247.91577756726042" r="7.371077391872484" fill="white" opacity="0.3"/><circle cx="193.75195491656177" cy="145.58316406346998" r="14.28118101192825" fill="white" opacity="0.3"/><circle cx="660.7750367510196" cy="299.31365474061096" r="19.353264590218405" fill="white" opacity="0.3"/><circle cx="253.29884078409455" cy="163.43378133975438" r="14.829571308566615" fill="white" opacity="0.3"/><circle cx="171.8357877891668" cy="91.89424832703077" r="9.007671477782448" fill="white" opacity="0.3"/><circle cx="644.651382080901" cy="517.8904537640753" r="7.159770510984657" fill="white" opacity="0.3"/><circle cx="449.02310055454217" cy="574.9820972220433" r="8.480425935265242" fill="white" opacity="0.3"/><circle cx="244.69666498587318" cy="171.74715299865747" r="18.031247584786815" fill="white" opacity="0.3"/><circle cx="145.50845388072906" cy="374.115235540505" r="10.967697504536046" fill="white" opacity="0.3"/><circle cx="233.10934933572725" cy="508.4484077129115" r="14.256566275649785" fill="white" opacity="0.3"/><circle cx="210.9665895009207" cy="499.3569406123491" r="14.186460447529983" fill="white" opacity="0.3"/><circle cx="789.1257961314391" cy="444.0286062409947" r="10.190462647398228" fill="white" opacity="0.3"/><circle cx="183.16153268440763" cy="541.4842500366101" r="18.142273858220957" fill="white" opacity="0.3"/><circle cx="120.56533166801646" cy="323.60574960818167" r="7.863232393442221" fill="white" opacity="0.3"/><circle cx="664.2054968574262" cy="589.7884458159002" r="6.908567061700381" fill="white" opacity="0.3"/><circle cx="582.1620350657408" cy="478.99334464005045" r="15.266498055807626" fill="white" opacity="0.3"/><circle cx="791.5858857906513" cy="584.7760442565183" r="17.71595752188555" fill="white" opacity="0.3"/><circle cx="14.3237248303695" cy="467.861516603948" r="13.390055831276298" fill="white" opacity="0.3"/><circle cx="351.69841950594594" cy="331.38674130861915" r="5.321561046256244" fill="white" opacity="0.3"/><circle cx="561.6689904171348" cy="221.3828021759373" r="16.30036147131588" fill="white" opacity="0.3"/><circle cx="407.6852905989019" cy="366.6164782196176" r="8.0533269002775" fill="white" opacity="0.3"/><circle cx="780.270797712589" cy="337.3319334447611" r="18.31771060623283" fill="white" opacity="0.3"/><circle cx="177.75805751674295" cy="222.19358833366405" r="7.642779279598621" fill="white" opacity="0.3"/><circle cx="675.439040346482" cy="497.43455378874654" r="13.295747946529222" fill="white" opacity="0.3"/><circle cx="21.271359697965586" cy="564.851795049456" r="18.171971005008885" fill="white" opacity="0.3"/><circle cx="554.5729282243727" cy="550.1276300322455" r="13.810771947490512" fill="white" opacity="0.3"/><circle cx="418.2211850577987" cy="130.94016136492613" r="10.806089908235464" fill="white" opacity="0.3"/><circle cx="170.40752258469246" cy="160.99620344078645" r="8.747311181577414" fill="white" opacity="0.3"/><circle cx="57.09566213217707" cy="527.5963639838965" r="5.5383926241191075" fill="white" opacity="0.3"/><circle cx="683.5339734574296" cy="314.66090691947153" r="6.11585688211395" fill="white" opacity="0.3"/><circle cx="427.2439728792901" cy="56.39830930405354" r="13.423259477596144" fill="white" opacity="0.3"/>
  </g>
  
  <!-- Text -->
  <g filter="url(#shadow)">
    <text x="400" y="280" font-family="Arial, sans-serif" font-size="48" font-weight="bold" fill="#333333" text-anchor="middle">
      Polycarbonate
    </text>
    <text x="400" y="330" font-family="Arial, sans-serif" font-size="24" fill="#333333" text-anchor="middle" opacity="0.8">
      Clear PC Granules
    </text>
  </g>
  
  <!-- Watermark -->
  <text x="400" y="570" font-family="Arial, sans-serif" font-size="14" fill="#333333" text-anchor="middle" opacity="0.5">
    Arihant Polyplast • Premium Quality Materials
  </text>
</svg>