<?xml version="1.0" encoding="UTF-8"?>
<svg width="800" height="600" xmlns="http://www.w3.org/2000/svg">
  <defs>
    <radialGradient id="grad-pmma" cx="50%" cy="50%" r="50%">
      <stop offset="0%" style="stop-color:#F0F8FF;stop-opacity:1" />
      <stop offset="100%" style="stop-color:#bdc5cc;stop-opacity:1" />
    </radialGradient>
    <filter id="shadow">
      <feGaussianBlur in="SourceAlpha" stdDeviation="3"/>
      <feOffset dx="0" dy="2" result="offsetblur"/>
      <feComponentTransfer>
        <feFuncA type="linear" slope="0.3"/>
      </feComponentTransfer>
      <feMerge> 
        <feMergeNode/>
        <feMergeNode in="SourceGraphic"/> 
      </feMerge>
    </filter>
  </defs>
  
  <!-- Background -->
  <rect width="800" height="600" fill="url(#grad-pmma)"/>
  
  <!-- Granule circles pattern -->
  <g opacity="0.4">
    <circle cx="464.71824772311805" cy="386.0073386992163" r="9.449070365489366" fill="white" opacity="0.3"/><circle cx="274.4250031371011" cy="262.64129323732277" r="15.865306174545927" fill="white" opacity="0.3"/><circle cx="770.4974412671789" cy="445.93555526102233" r="14.00921431166798" fill="white" opacity="0.3"/><circle cx="383.60828059515546" cy="493.0021900717132" r="17.136628160155183" fill="white" opacity="0.3"/><circle cx="652.4377635665458" cy="532.4482431994088" r="17.45032591457193" fill="white" opacity="0.3"/><circle cx="656.5960784639423" cy="144.97105359911637" r="7.8816220833886685" fill="white" opacity="0.3"/><circle cx="641.9690853353486" cy="124.59302807781569" r="16.447461064169417" fill="white" opacity="0.3"/><circle cx="78.75727984051757" cy="357.42954693608954" r="8.182615730101771" fill="white" opacity="0.3"/><circle cx="491.6148377591123" cy="295.1734428124965" r="12.781705961807926" fill="white" opacity="0.3"/><circle cx="780.7673457632509" cy="553.2966303685386" r="19.030651413434544" fill="white" opacity="0.3"/><circle cx="337.08862391092424" cy="181.40908157407821" r="12.182647037633036" fill="white" opacity="0.3"/><circle cx="442.58096006799246" cy="219.95384700483012" r="18.431499972456148" fill="white" opacity="0.3"/><circle cx="596.8179725471001" cy="237.84930074519292" r="13.961037272359302" fill="white" opacity="0.3"/><circle cx="464.9529849596477" cy="425.8332771044837" r="17.226611872820868" fill="white" opacity="0.3"/><circle cx="556.5852012514342" cy="114.21320346401107" r="11.136350478756274" fill="white" opacity="0.3"/><circle cx="247.51606852164096" cy="477.45952053713813" r="9.016891867293284" fill="white" opacity="0.3"/><circle cx="190.31912828782362" cy="463.23414383516155" r="19.71410693391276" fill="white" opacity="0.3"/><circle cx="439.1945549077802" cy="530.3373516977258" r="6.105010184176284" fill="white" opacity="0.3"/><circle cx="713.0275803478507" cy="338.46111779901105" r="18.703639416305066" fill="white" opacity="0.3"/><circle cx="305.37234253825557" cy="95.36058631746506" r="15.28829377964686" fill="white" opacity="0.3"/><circle cx="674.5029800469819" cy="294.02753944247996" r="19.834674612168477" fill="white" opacity="0.3"/><circle cx="648.3716305881089" cy="344.3042011991042" r="13.378480361233674" fill="white" opacity="0.3"/><circle cx="141.38271255513163" cy="263.38812065228666" r="16.022246265305927" fill="white" opacity="0.3"/><circle cx="165.31963072985442" cy="587.3701892045743" r="10.609369103949561" fill="white" opacity="0.3"/><circle cx="757.8036633682013" cy="293.29897040811204" r="19.20150724949781" fill="white" opacity="0.3"/><circle cx="539.4065037008465" cy="462.10345809666114" r="13.559499352498365" fill="white" opacity="0.3"/><circle cx="461.8087548652792" cy="304.7579895245649" r="11.601550067420364" fill="white" opacity="0.3"/><circle cx="84.30136752523003" cy="182.5237623508561" r="14.913714515206207" fill="white" opacity="0.3"/><circle cx="153.19898942201658" cy="357.53281136997083" r="17.87952681728111" fill="white" opacity="0.3"/><circle cx="376.4056426248943" cy="246.00997882608667" r="15.53267473773335" fill="white" opacity="0.3"/><circle cx="625.7083963796119" cy="371.1422608132639" r="11.846199278125205" fill="white" opacity="0.3"/><circle cx="698.4887320685103" cy="282.7735539411751" r="6.0642410049615405" fill="white" opacity="0.3"/><circle cx="164.3195502851949" cy="93.99469308057147" r="13.091519334771435" fill="white" opacity="0.3"/><circle cx="206.16778283699563" cy="133.44490166524957" r="19.945911509132976" fill="white" opacity="0.3"/><circle cx="393.58346240793685" cy="421.40795174340775" r="8.12068041987123" fill="white" opacity="0.3"/><circle cx="171.97644171322813" cy="433.0208822742923" r="14.32508599658483" fill="white" opacity="0.3"/><circle cx="68.95524932225996" cy="485.78905643123977" r="13.568928768534668" fill="white" opacity="0.3"/><circle cx="533.0759018406492" cy="332.66163168467426" r="6.51190265117173" fill="white" opacity="0.3"/><circle cx="103.55889387700702" cy="432.37520472566644" r="14.892832983004766" fill="white" opacity="0.3"/><circle cx="6.050688498642298" cy="286.98733988035826" r="9.362869015255363" fill="white" opacity="0.3"/><circle cx="252.9957178782813" cy="115.98123348915817" r="7.796069333744038" fill="white" opacity="0.3"/><circle cx="279.39493941966685" cy="494.13833318695794" r="5.896955029993134" fill="white" opacity="0.3"/><circle cx="793.5437323361527" cy="0.1850329458334743" r="15.771800201707414" fill="white" opacity="0.3"/><circle cx="142.59696989804257" cy="173.95082571825293" r="16.489763806261173" fill="white" opacity="0.3"/><circle cx="328.8680937417783" cy="330.6653112854957" r="14.761678446249523" fill="white" opacity="0.3"/><circle cx="490.24531521847774" cy="378.71164863717195" r="12.479705085209606" fill="white" opacity="0.3"/><circle cx="498.09792091616714" cy="147.40354069156177" r="17.05262498136937" fill="white" opacity="0.3"/><circle cx="726.2603861074512" cy="49.624242160963774" r="12.877030040659179" fill="white" opacity="0.3"/><circle cx="426.77584730880153" cy="248.36643236415048" r="17.596308381121112" fill="white" opacity="0.3"/><circle cx="759.6446320711581" cy="113.91757134275939" r="16.61792937987607" fill="white" opacity="0.3"/><circle cx="65.40440402570039" cy="216.59306700283096" r="17.879260615141312" fill="white" opacity="0.3"/><circle cx="127.15823020468235" cy="546.6865612872566" r="15.129416750727398" fill="white" opacity="0.3"/><circle cx="114.03678725054549" cy="569.2517622804218" r="11.861554930393368" fill="white" opacity="0.3"/><circle cx="708.0846210678294" cy="93.89896978044752" r="15.525797259620267" fill="white" opacity="0.3"/><circle cx="514.4875761371737" cy="68.69495202960474" r="7.740174395708873" fill="white" opacity="0.3"/><circle cx="407.5382895342249" cy="173.8723683665368" r="15.056431991315515" fill="white" opacity="0.3"/><circle cx="544.7129546676789" cy="281.4455145910066" r="14.528117399508929" fill="white" opacity="0.3"/><circle cx="739.8394786613327" cy="167.38264820218262" r="18.94567598005129" fill="white" opacity="0.3"/><circle cx="358.56083476415745" cy="271.7288685867372" r="6.4135207514437775" fill="white" opacity="0.3"/><circle cx="593.8123546233538" cy="366.59211361313226" r="5.999614955320566" fill="white" opacity="0.3"/><circle cx="344.6277510860533" cy="0.7385370584225726" r="10.767495123270425" fill="white" opacity="0.3"/><circle cx="792.6160453310493" cy="529.5559282142477" r="17.65716689875365" fill="white" opacity="0.3"/><circle cx="650.9339249594427" cy="210.08200549918104" r="10.921912182181234" fill="white" opacity="0.3"/><circle cx="38.64070834315365" cy="115.96837124234361" r="11.502910842139851" fill="white" opacity="0.3"/><circle cx="269.14282203862206" cy="419.3235068205745" r="9.87718889461975" fill="white" opacity="0.3"/><circle cx="693.8636064015723" cy="298.8412819911631" r="13.403935163946747" fill="white" opacity="0.3"/><circle cx="531.3363413957594" cy="529.1800094682513" r="6.388762643225442" fill="white" opacity="0.3"/><circle cx="470.681321954571" cy="332.14989060613283" r="9.41804763145631" fill="white" opacity="0.3"/><circle cx="183.66937491707756" cy="366.3320252470542" r="12.606070911975818" fill="white" opacity="0.3"/><circle cx="336.9058096039884" cy="177.38754498339077" r="16.581376011817667" fill="white" opacity="0.3"/><circle cx="332.3201076583271" cy="557.6323455509341" r="8.205069347984212" fill="white" opacity="0.3"/><circle cx="576.2063396130799" cy="82.75492273829622" r="17.723775967312733" fill="white" opacity="0.3"/><circle cx="627.5971601669125" cy="249.9229060449019" r="18.273779011706267" fill="white" opacity="0.3"/><circle cx="209.27369999671893" cy="140.11206209482359" r="13.5505317025754" fill="white" opacity="0.3"/><circle cx="180.20368348836053" cy="439.88707621830224" r="10.725443165530837" fill="white" opacity="0.3"/><circle cx="654.082397871678" cy="86.05503411313586" r="9.788327172311195" fill="white" opacity="0.3"/><circle cx="190.11700520257122" cy="548.0052365202158" r="14.96782272423394" fill="white" opacity="0.3"/><circle cx="487.63111821063785" cy="252.25448842285584" r="19.239506158177313" fill="white" opacity="0.3"/><circle cx="693.7171240696575" cy="286.5244625283113" r="12.345239856990808" fill="white" opacity="0.3"/><circle cx="304.22481531541194" cy="50.34356382142322" r="7.046628008605935" fill="white" opacity="0.3"/><circle cx="108.45948052900285" cy="395.7107776473404" r="9.130029315980078" fill="white" opacity="0.3"/><circle cx="309.9385788724736" cy="233.14556651874085" r="7.302260076025665" fill="white" opacity="0.3"/><circle cx="320.99276874880945" cy="405.16776511458033" r="14.61994009751582" fill="white" opacity="0.3"/><circle cx="351.69930177803303" cy="26.38691959071704" r="9.124871327139006" fill="white" opacity="0.3"/><circle cx="72.82947510042791" cy="5.0299585585972695" r="19.836036397709528" fill="white" opacity="0.3"/><circle cx="322.4693865137425" cy="64.49207110175466" r="14.299248843502388" fill="white" opacity="0.3"/><circle cx="431.07519624848226" cy="319.12698431715984" r="12.846291988548181" fill="white" opacity="0.3"/><circle cx="608.6492355990765" cy="442.70496251355706" r="9.741641609882844" fill="white" opacity="0.3"/><circle cx="130.69474915586278" cy="50.09260821526138" r="10.072667743931778" fill="white" opacity="0.3"/><circle cx="243.44292214860772" cy="65.5323029982215" r="17.820548803104618" fill="white" opacity="0.3"/><circle cx="576.6984439272576" cy="244.99891106243982" r="12.464989456752736" fill="white" opacity="0.3"/><circle cx="88.4721799299581" cy="370.9280483668257" r="6.671725426874666" fill="white" opacity="0.3"/><circle cx="391.7766569572243" cy="540.0874278636816" r="13.685030446156144" fill="white" opacity="0.3"/><circle cx="5.270333578022068" cy="526.2511580580232" r="18.556029245855754" fill="white" opacity="0.3"/><circle cx="295.49563875858394" cy="297.3090489553121" r="13.141705393681388" fill="white" opacity="0.3"/><circle cx="494.4164671459829" cy="463.67016911397224" r="14.454565011330294" fill="white" opacity="0.3"/><circle cx="91.94235574306492" cy="237.7280365771241" r="10.931657160930971" fill="white" opacity="0.3"/><circle cx="566.6759211626687" cy="386.80003585175893" r="16.000625499596964" fill="white" opacity="0.3"/><circle cx="508.02295064735114" cy="91.84486214146087" r="6.6952322701402744" fill="white" opacity="0.3"/><circle cx="97.95171193739449" cy="576.6595573356141" r="18.949355533789912" fill="white" opacity="0.3"/>
  </g>
  
  <!-- Text -->
  <g filter="url(#shadow)">
    <text x="400" y="280" font-family="Arial, sans-serif" font-size="48" font-weight="bold" fill="#333333" text-anchor="middle">
      PMMA Acrylic
    </text>
    <text x="400" y="330" font-family="Arial, sans-serif" font-size="24" fill="#333333" text-anchor="middle" opacity="0.8">
      Transparent Granules
    </text>
  </g>
  
  <!-- Watermark -->
  <text x="400" y="570" font-family="Arial, sans-serif" font-size="14" fill="#333333" text-anchor="middle" opacity="0.5">
    Arihant Polyplast • Premium Quality Materials
  </text>
</svg>