<?xml version="1.0" encoding="UTF-8"?>
<svg width="800" height="600" xmlns="http://www.w3.org/2000/svg">
  <defs>
    <radialGradient id="grad-pom" cx="50%" cy="50%" r="50%">
      <stop offset="0%" style="stop-color:#FFFAF0;stop-opacity:1" />
      <stop offset="100%" style="stop-color:#ccc7bd;stop-opacity:1" />
    </radialGradient>
    <filter id="shadow">
      <feGaussianBlur in="SourceAlpha" stdDeviation="3"/>
      <feOffset dx="0" dy="2" result="offsetblur"/>
      <feComponentTransfer>
        <feFuncA type="linear" slope="0.3"/>
      </feComponentTransfer>
      <feMerge> 
        <feMergeNode/>
        <feMergeNode in="SourceGraphic"/> 
      </feMerge>
    </filter>
  </defs>
  
  <!-- Background -->
  <rect width="800" height="600" fill="url(#grad-pom)"/>
  
  <!-- Granule circles pattern -->
  <g opacity="0.4">
    <circle cx="452.81721355865665" cy="51.3298209873575" r="19.625162160509248" fill="white" opacity="0.3"/><circle cx="759.2095488898797" cy="534.1225081723562" r="8.32800477174733" fill="white" opacity="0.3"/><circle cx="341.4861405017942" cy="15.51427778226724" r="14.551018687302001" fill="white" opacity="0.3"/><circle cx="586.9146459965459" cy="244.87677384106675" r="9.351286175018757" fill="white" opacity="0.3"/><circle cx="526.8917600201677" cy="135.38409632678918" r="19.45061458117992" fill="white" opacity="0.3"/><circle cx="689.9025036379089" cy="352.4765778950973" r="7.054667615225686" fill="white" opacity="0.3"/><circle cx="704.4627503010001" cy="9.24087210041613" r="10.554098014286712" fill="white" opacity="0.3"/><circle cx="174.18855820838326" cy="85.39533385007374" r="13.700092786431167" fill="white" opacity="0.3"/><circle cx="114.6229344326148" cy="353.9489618935336" r="18.33424326193809" fill="white" opacity="0.3"/><circle cx="407.3697055880725" cy="403.4396270070633" r="16.324985506319514" fill="white" opacity="0.3"/><circle cx="318.4598954595164" cy="405.9259441543115" r="19.922479175426787" fill="white" opacity="0.3"/><circle cx="328.5671452885252" cy="570.9893267847251" r="14.728672928378575" fill="white" opacity="0.3"/><circle cx="651.1128103128507" cy="156.3652314063167" r="10.140581913356158" fill="white" opacity="0.3"/><circle cx="761.8178273621883" cy="399.0612069754847" r="9.623615309090823" fill="white" opacity="0.3"/><circle cx="561.1346569793957" cy="290.39722866107144" r="17.86262645350536" fill="white" opacity="0.3"/><circle cx="11.157669105036838" cy="292.42205456630523" r="10.386778968785741" fill="white" opacity="0.3"/><circle cx="681.2425609038398" cy="552.4873075071256" r="18.576676551754787" fill="white" opacity="0.3"/><circle cx="747.2996604366045" cy="375.0481122845512" r="16.21729124574054" fill="white" opacity="0.3"/><circle cx="587.6938475233623" cy="72.74344762784486" r="9.912878765276975" fill="white" opacity="0.3"/><circle cx="147.34615235289183" cy="129.10189365570275" r="5.219426347543365" fill="white" opacity="0.3"/><circle cx="141.04519841726395" cy="120.1602542341766" r="19.7256098307113" fill="white" opacity="0.3"/><circle cx="735.7046259466614" cy="401.0405824886541" r="5.92498894589302" fill="white" opacity="0.3"/><circle cx="555.9207995194791" cy="69.83260919468867" r="8.794386849744594" fill="white" opacity="0.3"/><circle cx="656.8402823905506" cy="162.36640281486874" r="8.478477607726331" fill="white" opacity="0.3"/><circle cx="39.82424238542457" cy="107.55472909668727" r="15.41184288172154" fill="white" opacity="0.3"/><circle cx="193.8527712044807" cy="374.93670441094014" r="13.71213533010076" fill="white" opacity="0.3"/><circle cx="105.76478636170101" cy="195.5260919705321" r="6.764922901086271" fill="white" opacity="0.3"/><circle cx="272.62583758873467" cy="444.1796032671483" r="10.726050513352346" fill="white" opacity="0.3"/><circle cx="390.4266002863535" cy="542.6550850839635" r="18.714614707046792" fill="white" opacity="0.3"/><circle cx="537.0257996973503" cy="149.66558164135054" r="13.851186058386032" fill="white" opacity="0.3"/><circle cx="486.9700621825746" cy="395.9499579400104" r="17.53792685601553" fill="white" opacity="0.3"/><circle cx="206.94782703989335" cy="499.8300976593047" r="12.269655322295062" fill="white" opacity="0.3"/><circle cx="390.76927466208133" cy="360.2273652302551" r="16.43316654208867" fill="white" opacity="0.3"/><circle cx="250.69742600192092" cy="395.95272113068785" r="16.126745133636636" fill="white" opacity="0.3"/><circle cx="6.90709021907745" cy="154.1283125255545" r="17.02096979277824" fill="white" opacity="0.3"/><circle cx="769.5226173230158" cy="451.91101909971246" r="18.714406245002593" fill="white" opacity="0.3"/><circle cx="472.39539547176935" cy="135.47131556334614" r="6.435753785090754" fill="white" opacity="0.3"/><circle cx="610.7761272216777" cy="335.69800838455046" r="17.163745489578417" fill="white" opacity="0.3"/><circle cx="442.0908741117178" cy="21.047064505069145" r="5.954799506247876" fill="white" opacity="0.3"/><circle cx="15.184985256268213" cy="105.27578978202068" r="16.826449422429405" fill="white" opacity="0.3"/><circle cx="323.32167710786786" cy="181.53525995891022" r="6.2399427534790775" fill="white" opacity="0.3"/><circle cx="301.45952409751476" cy="92.34440239747859" r="8.479235445432671" fill="white" opacity="0.3"/><circle cx="791.7358284314762" cy="115.5695176096115" r="18.641799349103078" fill="white" opacity="0.3"/><circle cx="76.50792669337996" cy="131.0321887745605" r="17.896795781816213" fill="white" opacity="0.3"/><circle cx="412.1608168214348" cy="591.705439482324" r="8.039435085159955" fill="white" opacity="0.3"/><circle cx="352.8678652888031" cy="213.78894523088113" r="11.929451881115588" fill="white" opacity="0.3"/><circle cx="246.15806478702157" cy="323.92213568951126" r="6.077228495224425" fill="white" opacity="0.3"/><circle cx="131.10768259875564" cy="454.70144569667207" r="18.271822399388775" fill="white" opacity="0.3"/><circle cx="567.0234285096778" cy="359.37915853656693" r="12.493017901020181" fill="white" opacity="0.3"/><circle cx="356.9189624890517" cy="527.3765748819213" r="17.189987771557167" fill="white" opacity="0.3"/><circle cx="385.80763730578536" cy="360.99759530474023" r="15.09042436215178" fill="white" opacity="0.3"/><circle cx="670.7301022732397" cy="571.7397120037839" r="17.821595665340524" fill="white" opacity="0.3"/><circle cx="347.4777482714374" cy="540.7380813721995" r="9.76589890766228" fill="white" opacity="0.3"/><circle cx="737.8056868806326" cy="71.29330424899163" r="7.619643575359529" fill="white" opacity="0.3"/><circle cx="429.279492610379" cy="563.5760546525576" r="12.302544541538929" fill="white" opacity="0.3"/><circle cx="626.966559785964" cy="118.5837883304542" r="8.893236613007305" fill="white" opacity="0.3"/><circle cx="368.00756646895286" cy="117.07770999816213" r="6.453035527249113" fill="white" opacity="0.3"/><circle cx="270.9247110562092" cy="85.85160380367421" r="14.120781862132535" fill="white" opacity="0.3"/><circle cx="55.80908612425883" cy="440.8433112488944" r="17.162810058879845" fill="white" opacity="0.3"/><circle cx="740.30977465143" cy="246.19805509443432" r="19.301026067673664" fill="white" opacity="0.3"/><circle cx="516.2954539757533" cy="57.14709421711199" r="15.839239398466944" fill="white" opacity="0.3"/><circle cx="252.6328028345068" cy="139.02760692326538" r="7.450311051276698" fill="white" opacity="0.3"/><circle cx="535.0765920148154" cy="233.25146774651589" r="6.633820818045633" fill="white" opacity="0.3"/><circle cx="173.89300456624593" cy="327.5218002423046" r="8.657559471659187" fill="white" opacity="0.3"/><circle cx="773.558164521422" cy="453.68042228757884" r="10.666471133120973" fill="white" opacity="0.3"/><circle cx="276.8690085947797" cy="326.6916776009831" r="17.716333346811698" fill="white" opacity="0.3"/><circle cx="6.607848581250142" cy="307.86497674491585" r="6.446621897368163" fill="white" opacity="0.3"/><circle cx="497.270299790196" cy="344.8243675814708" r="13.41060193865193" fill="white" opacity="0.3"/><circle cx="733.3216629977227" cy="470.86963740199974" r="7.2191846899449175" fill="white" opacity="0.3"/><circle cx="146.60508774952783" cy="487.02312251312304" r="10.089977476637744" fill="white" opacity="0.3"/><circle cx="456.2349352681077" cy="266.4495501372882" r="19.777652223566246" fill="white" opacity="0.3"/><circle cx="73.92250084679155" cy="501.7231636245642" r="19.585169954455473" fill="white" opacity="0.3"/><circle cx="127.15311284762984" cy="410.80552314828924" r="5.62525430715271" fill="white" opacity="0.3"/><circle cx="3.3994335608687365" cy="570.7087733518811" r="6.6751002008095455" fill="white" opacity="0.3"/><circle cx="779.753598039858" cy="589.8480978015562" r="13.740218740554235" fill="white" opacity="0.3"/><circle cx="549.3096117963203" cy="61.173615126152555" r="19.350625135963604" fill="white" opacity="0.3"/><circle cx="497.2516703150938" cy="455.25527455056266" r="18.7907309165648" fill="white" opacity="0.3"/><circle cx="66.82541221504002" cy="460.572354514982" r="10.084205021716217" fill="white" opacity="0.3"/><circle cx="359.68006900406834" cy="64.38268981321293" r="12.512003614091434" fill="white" opacity="0.3"/><circle cx="713.6517998095361" cy="182.93853990893518" r="18.54388469919041" fill="white" opacity="0.3"/><circle cx="628.4497619390585" cy="146.45805813076717" r="7.978000829739305" fill="white" opacity="0.3"/><circle cx="313.23808750933676" cy="164.0680122012643" r="5.304017935761289" fill="white" opacity="0.3"/><circle cx="650.7675718721476" cy="580.3711034402693" r="19.43300930176177" fill="white" opacity="0.3"/><circle cx="783.4556561987985" cy="68.85796083003393" r="13.13976840985925" fill="white" opacity="0.3"/><circle cx="516.3540075327743" cy="59.83745185870531" r="5.953741089764474" fill="white" opacity="0.3"/><circle cx="406.28734072983417" cy="391.84958044265477" r="10.053073375409749" fill="white" opacity="0.3"/><circle cx="335.4047396590952" cy="394.2590177163751" r="13.8961529686709" fill="white" opacity="0.3"/><circle cx="4.411625322257784" cy="374.8764779276496" r="9.716787591288345" fill="white" opacity="0.3"/><circle cx="401.83919038933453" cy="54.73321295364504" r="12.525658177237155" fill="white" opacity="0.3"/><circle cx="493.14308572253367" cy="484.31881603922045" r="7.193813552859415" fill="white" opacity="0.3"/><circle cx="716.833120105552" cy="114.40379196739255" r="10.175983109383989" fill="white" opacity="0.3"/><circle cx="661.8261081417235" cy="518.2379964315085" r="12.03027809863831" fill="white" opacity="0.3"/><circle cx="504.7636074490648" cy="3.1383161906363144" r="12.371103519884315" fill="white" opacity="0.3"/><circle cx="796.7074880033081" cy="112.07697454858419" r="10.901676492809464" fill="white" opacity="0.3"/><circle cx="439.6048336367247" cy="126.7553949748792" r="19.251685656009478" fill="white" opacity="0.3"/><circle cx="628.9241837084523" cy="453.3125625189958" r="10.380749693043978" fill="white" opacity="0.3"/><circle cx="409.2868895350771" cy="502.7511878903066" r="19.0865051285573" fill="white" opacity="0.3"/><circle cx="336.6547872601957" cy="465.66172504272834" r="14.282646048441837" fill="white" opacity="0.3"/><circle cx="640.1255205592585" cy="389.77081467250423" r="10.761365355839668" fill="white" opacity="0.3"/><circle cx="401.4571444737805" cy="494.5744651722995" r="16.672450743675743" fill="white" opacity="0.3"/>
  </g>
  
  <!-- Text -->
  <g filter="url(#shadow)">
    <text x="400" y="280" font-family="Arial, sans-serif" font-size="48" font-weight="bold" fill="#333333" text-anchor="middle">
      POM Polyacetal
    </text>
    <text x="400" y="330" font-family="Arial, sans-serif" font-size="24" fill="#333333" text-anchor="middle" opacity="0.8">
      Engineering Plastic
    </text>
  </g>
  
  <!-- Watermark -->
  <text x="400" y="570" font-family="Arial, sans-serif" font-size="14" fill="#333333" text-anchor="middle" opacity="0.5">
    Arihant Polyplast • Premium Quality Materials
  </text>
</svg>