<?xml version="1.0" encoding="UTF-8"?>
<svg width="800" height="600" xmlns="http://www.w3.org/2000/svg">
  <defs>
    <radialGradient id="grad-pp" cx="50%" cy="50%" r="50%">
      <stop offset="0%" style="stop-color:#F0E68C;stop-opacity:1" />
      <stop offset="100%" style="stop-color:#bdb359;stop-opacity:1" />
    </radialGradient>
    <filter id="shadow">
      <feGaussianBlur in="SourceAlpha" stdDeviation="3"/>
      <feOffset dx="0" dy="2" result="offsetblur"/>
      <feComponentTransfer>
        <feFuncA type="linear" slope="0.3"/>
      </feComponentTransfer>
      <feMerge> 
        <feMergeNode/>
        <feMergeNode in="SourceGraphic"/> 
      </feMerge>
    </filter>
  </defs>
  
  <!-- Background -->
  <rect width="800" height="600" fill="url(#grad-pp)"/>
  
  <!-- Granule circles pattern -->
  <g opacity="0.4">
    <circle cx="333.4400360549627" cy="109.65728420374144" r="5.7820754391314955" fill="white" opacity="0.3"/><circle cx="298.9792332955305" cy="366.5960173923449" r="7.784046988971497" fill="white" opacity="0.3"/><circle cx="174.28231394849655" cy="73.78814422686277" r="9.797614468541944" fill="white" opacity="0.3"/><circle cx="10.076551750383" cy="419.48410574393944" r="17.364356611705105" fill="white" opacity="0.3"/><circle cx="513.8942058838321" cy="437.1705484126522" r="12.279464100380599" fill="white" opacity="0.3"/><circle cx="708.5303440696706" cy="94.0340790715052" r="17.227631393188247" fill="white" opacity="0.3"/><circle cx="635.4461863286663" cy="578.8199848648571" r="8.499472779880438" fill="white" opacity="0.3"/><circle cx="794.3146897041123" cy="201.3780759144555" r="7.236310638964588" fill="white" opacity="0.3"/><circle cx="511.3539518372388" cy="249.6407699898336" r="5.729626603357206" fill="white" opacity="0.3"/><circle cx="746.7299014395976" cy="136.71146728793948" r="19.00366883515835" fill="white" opacity="0.3"/><circle cx="398.78260314918055" cy="413.53026360424593" r="11.868439429636238" fill="white" opacity="0.3"/><circle cx="261.73120384521906" cy="268.98267238611425" r="5.976674903745206" fill="white" opacity="0.3"/><circle cx="378.27254361925384" cy="52.188384501646354" r="17.535258643232098" fill="white" opacity="0.3"/><circle cx="472.7035838772096" cy="345.6032624050368" r="16.002422719774813" fill="white" opacity="0.3"/><circle cx="527.5497914811448" cy="499.4203643881362" r="14.925864631953154" fill="white" opacity="0.3"/><circle cx="303.8334001946171" cy="524.2326088080582" r="6.8301599589111985" fill="white" opacity="0.3"/><circle cx="498.95614356813445" cy="233.31569817933226" r="11.3295207553978" fill="white" opacity="0.3"/><circle cx="26.085284286439236" cy="313.471547294856" r="6.469644156399447" fill="white" opacity="0.3"/><circle cx="79.95457844539082" cy="184.07580648588308" r="9.037026902503431" fill="white" opacity="0.3"/><circle cx="526.9140850566989" cy="199.9714653449957" r="8.04482544463717" fill="white" opacity="0.3"/><circle cx="510.05914420386614" cy="415.5952070694472" r="5.300400419794647" fill="white" opacity="0.3"/><circle cx="655.1619909076669" cy="18.062984346277645" r="16.945992321341347" fill="white" opacity="0.3"/><circle cx="360.6850382858566" cy="539.8128297698561" r="7.18918625544646" fill="white" opacity="0.3"/><circle cx="277.31128770456843" cy="475.6960426712845" r="15.924744886980212" fill="white" opacity="0.3"/><circle cx="712.4240471017314" cy="85.54347696415662" r="14.391580353070543" fill="white" opacity="0.3"/><circle cx="532.923239001686" cy="138.23372055864002" r="9.540169329821602" fill="white" opacity="0.3"/><circle cx="314.29272408770646" cy="147.46292280513927" r="10.77223042711878" fill="white" opacity="0.3"/><circle cx="250.6200836436756" cy="154.0725552621712" r="14.739152284266332" fill="white" opacity="0.3"/><circle cx="124.20718677556061" cy="157.62060362330163" r="17.879246616680405" fill="white" opacity="0.3"/><circle cx="269.4158370502071" cy="251.00497497579013" r="10.989203493347802" fill="white" opacity="0.3"/><circle cx="151.4847983940032" cy="325.9832285381735" r="7.313460009727786" fill="white" opacity="0.3"/><circle cx="246.6743359378567" cy="71.53519142479516" r="19.59882496833653" fill="white" opacity="0.3"/><circle cx="130.16632125652333" cy="189.00629286027103" r="6.705685361223752" fill="white" opacity="0.3"/><circle cx="6.78122623852202" cy="358.1445358618769" r="6.954375028724693" fill="white" opacity="0.3"/><circle cx="572.5619370761628" cy="356.1927799896059" r="5.892410613448719" fill="white" opacity="0.3"/><circle cx="362.28884874762974" cy="436.2927515851898" r="15.54535235878373" fill="white" opacity="0.3"/><circle cx="18.824297133731083" cy="312.9372016927041" r="7.960931107256888" fill="white" opacity="0.3"/><circle cx="568.3225642208557" cy="48.3344490996491" r="13.166488107131167" fill="white" opacity="0.3"/><circle cx="35.6432514835296" cy="129.89879008251555" r="15.848944521321322" fill="white" opacity="0.3"/><circle cx="215.5638496174161" cy="524.0503645324031" r="9.99236847029477" fill="white" opacity="0.3"/><circle cx="786.3973085045726" cy="429.6217990604314" r="14.349536584789515" fill="white" opacity="0.3"/><circle cx="37.238324881875506" cy="485.3465335720219" r="18.419615863632366" fill="white" opacity="0.3"/><circle cx="464.92755369574024" cy="19.441543204853097" r="11.256247094959605" fill="white" opacity="0.3"/><circle cx="625.32745993903" cy="295.29553925529945" r="12.726511141910109" fill="white" opacity="0.3"/><circle cx="569.8078425445967" cy="100.67225382560206" r="19.277385056706834" fill="white" opacity="0.3"/><circle cx="23.660456687410925" cy="154.38535527295335" r="14.433201970755452" fill="white" opacity="0.3"/><circle cx="550.7965391058334" cy="212.92414359922788" r="14.653480431790124" fill="white" opacity="0.3"/><circle cx="564.3115534502369" cy="559.7358937915" r="14.292695109276437" fill="white" opacity="0.3"/><circle cx="166.27094950327424" cy="95.0561651404706" r="18.52082249345763" fill="white" opacity="0.3"/><circle cx="520.6802758645792" cy="148.4064457167045" r="11.645941571125363" fill="white" opacity="0.3"/><circle cx="364.5476559568484" cy="271.15312548640003" r="17.582049046250106" fill="white" opacity="0.3"/><circle cx="617.6603677391952" cy="456.3037504477882" r="18.544574158124522" fill="white" opacity="0.3"/><circle cx="622.6302991219275" cy="130.8006830099006" r="13.037034528200317" fill="white" opacity="0.3"/><circle cx="144.09595168064396" cy="172.498221327852" r="14.15953990893181" fill="white" opacity="0.3"/><circle cx="183.9426931331855" cy="443.03470427256" r="13.461336063003914" fill="white" opacity="0.3"/><circle cx="794.1158128712299" cy="207.3811920517082" r="7.811580069478266" fill="white" opacity="0.3"/><circle cx="440.71845804561036" cy="114.5684888912567" r="11.977616178003002" fill="white" opacity="0.3"/><circle cx="8.25922687217746" cy="451.05662655810477" r="19.008037171596136" fill="white" opacity="0.3"/><circle cx="799.7879805273618" cy="181.10335107698887" r="5.431945998842082" fill="white" opacity="0.3"/><circle cx="415.5667122009575" cy="13.24571538990269" r="10.866838508441242" fill="white" opacity="0.3"/><circle cx="566.7159873515499" cy="100.72796219410954" r="11.175323064290168" fill="white" opacity="0.3"/><circle cx="552.6283216795841" cy="397.0246868690883" r="13.703327569406438" fill="white" opacity="0.3"/><circle cx="356.28750917936543" cy="319.49218032579836" r="14.376856719747336" fill="white" opacity="0.3"/><circle cx="482.7480979782253" cy="205.31039924960942" r="11.906276440089929" fill="white" opacity="0.3"/><circle cx="251.07359367433696" cy="104.5214678363578" r="11.779857385996861" fill="white" opacity="0.3"/><circle cx="611.7113696678913" cy="134.17243022742298" r="18.37044022061832" fill="white" opacity="0.3"/><circle cx="33.98703036248341" cy="211.83362287335495" r="16.40916866864931" fill="white" opacity="0.3"/><circle cx="734.7444011953766" cy="317.18843103916373" r="16.2608283878671" fill="white" opacity="0.3"/><circle cx="192.781194436916" cy="173.63470014422182" r="11.404273101915258" fill="white" opacity="0.3"/><circle cx="350.0550595543768" cy="267.72247090373605" r="16.523175434615318" fill="white" opacity="0.3"/><circle cx="491.60396298904334" cy="363.3724995718773" r="11.022997577033006" fill="white" opacity="0.3"/><circle cx="779.5784014109455" cy="461.0301272115618" r="10.757017206716684" fill="white" opacity="0.3"/><circle cx="332.5459288876626" cy="108.39258304374961" r="8.240797727614762" fill="white" opacity="0.3"/><circle cx="786.6983304939017" cy="360.72180264567265" r="5.520937591993022" fill="white" opacity="0.3"/><circle cx="61.16423704467016" cy="164.90409593400625" r="18.465493358861607" fill="white" opacity="0.3"/><circle cx="685.9454602304643" cy="153.49391676434075" r="10.657249054248002" fill="white" opacity="0.3"/><circle cx="599.9103181208899" cy="300.23985191160085" r="17.578134974107744" fill="white" opacity="0.3"/><circle cx="38.09026274970337" cy="460.2565613518326" r="9.331566405505594" fill="white" opacity="0.3"/><circle cx="487.3789871038626" cy="72.77031906588836" r="13.79405154104268" fill="white" opacity="0.3"/><circle cx="133.95391843003102" cy="261.53360550348447" r="18.71267321960506" fill="white" opacity="0.3"/><circle cx="245.07692306809537" cy="180.14416044170176" r="18.090097069572625" fill="white" opacity="0.3"/><circle cx="485.43186520377935" cy="515.3222769322525" r="6.617020408608089" fill="white" opacity="0.3"/><circle cx="686.6483792610643" cy="389.61427680781526" r="18.83393389374268" fill="white" opacity="0.3"/><circle cx="224.67632805999563" cy="61.347534269414595" r="19.92752427497438" fill="white" opacity="0.3"/><circle cx="239.07248095958514" cy="163.00005683166367" r="15.226557828818278" fill="white" opacity="0.3"/><circle cx="686.8171873663721" cy="408.92678663779543" r="13.93644260147443" fill="white" opacity="0.3"/><circle cx="531.7640888742633" cy="527.0498386941094" r="6.301655225184255" fill="white" opacity="0.3"/><circle cx="555.2360800159186" cy="188.7382482490589" r="15.063950942685848" fill="white" opacity="0.3"/><circle cx="386.27753290136263" cy="138.67341897943862" r="16.060868476902797" fill="white" opacity="0.3"/><circle cx="461.21846007914576" cy="126.10367078410592" r="14.01490431881625" fill="white" opacity="0.3"/><circle cx="543.4799201770364" cy="241.14398885877512" r="18.725770348375633" fill="white" opacity="0.3"/><circle cx="573.4244569630218" cy="465.5124383865613" r="16.515802816114327" fill="white" opacity="0.3"/><circle cx="42.592912804908956" cy="476.5354878674766" r="6.588375330261539" fill="white" opacity="0.3"/><circle cx="213.33404334426805" cy="270.9493285334451" r="13.888126540218524" fill="white" opacity="0.3"/><circle cx="40.42080967485031" cy="276.03842725922425" r="13.003736634456478" fill="white" opacity="0.3"/><circle cx="553.850202409445" cy="46.76328887623447" r="17.23969300865945" fill="white" opacity="0.3"/><circle cx="317.5594950238306" cy="312.6551047277762" r="14.607753625622943" fill="white" opacity="0.3"/><circle cx="151.82543622098405" cy="301.8612439697557" r="15.8924633944335" fill="white" opacity="0.3"/><circle cx="143.0749971041373" cy="272.53638814998124" r="8.213795009194545" fill="white" opacity="0.3"/><circle cx="427.44920639374755" cy="432.9586762939517" r="18.008971091815162" fill="white" opacity="0.3"/>
  </g>
  
  <!-- Text -->
  <g filter="url(#shadow)">
    <text x="400" y="280" font-family="Arial, sans-serif" font-size="48" font-weight="bold" fill="#333333" text-anchor="middle">
      PP Compounds
    </text>
    <text x="400" y="330" font-family="Arial, sans-serif" font-size="24" fill="#333333" text-anchor="middle" opacity="0.8">
      Polypropylene Granules
    </text>
  </g>
  
  <!-- Watermark -->
  <text x="400" y="570" font-family="Arial, sans-serif" font-size="14" fill="#333333" text-anchor="middle" opacity="0.5">
    Arihant Polyplast • Premium Quality Materials
  </text>
</svg>