<?xml version="1.0" encoding="UTF-8"?>
<svg width="800" height="600" xmlns="http://www.w3.org/2000/svg">
  <defs>
    <radialGradient id="grad-tpe" cx="50%" cy="50%" r="50%">
      <stop offset="0%" style="stop-color:#FFE4E1;stop-opacity:1" />
      <stop offset="100%" style="stop-color:#ccb1ae;stop-opacity:1" />
    </radialGradient>
    <filter id="shadow">
      <feGaussianBlur in="SourceAlpha" stdDeviation="3"/>
      <feOffset dx="0" dy="2" result="offsetblur"/>
      <feComponentTransfer>
        <feFuncA type="linear" slope="0.3"/>
      </feComponentTransfer>
      <feMerge> 
        <feMergeNode/>
        <feMergeNode in="SourceGraphic"/> 
      </feMerge>
    </filter>
  </defs>
  
  <!-- Background -->
  <rect width="800" height="600" fill="url(#grad-tpe)"/>
  
  <!-- Granule circles pattern -->
  <g opacity="0.4">
    <circle cx="73.49186525577691" cy="291.4937154745608" r="19.600326849379684" fill="white" opacity="0.3"/><circle cx="175.9651889042164" cy="425.72210713536845" r="18.95097981173324" fill="white" opacity="0.3"/><circle cx="103.0865174718385" cy="487.50079541251006" r="17.424789925136125" fill="white" opacity="0.3"/><circle cx="662.4305575953707" cy="170.13125253162698" r="8.461304235928804" fill="white" opacity="0.3"/><circle cx="113.45542363419972" cy="460.8492035395812" r="11.461086673694423" fill="white" opacity="0.3"/><circle cx="277.83402877040623" cy="272.24732537069434" r="19.475733615847112" fill="white" opacity="0.3"/><circle cx="398.8034236134088" cy="435.93558262112225" r="5.724280101082655" fill="white" opacity="0.3"/><circle cx="716.2141146425683" cy="46.42410128460155" r="5.061284843539768" fill="white" opacity="0.3"/><circle cx="392.02207912315794" cy="319.503232511981" r="10.998858049892345" fill="white" opacity="0.3"/><circle cx="335.249759799551" cy="167.63579546300002" r="16.167596408650994" fill="white" opacity="0.3"/><circle cx="227.3675627311289" cy="526.0448517674205" r="11.106084141821881" fill="white" opacity="0.3"/><circle cx="68.58726654489074" cy="272.8842285446701" r="8.929379227860153" fill="white" opacity="0.3"/><circle cx="399.35000265740763" cy="102.76179959458823" r="6.886779285026456" fill="white" opacity="0.3"/><circle cx="742.3399829878404" cy="402.131681379534" r="6.293426119140532" fill="white" opacity="0.3"/><circle cx="62.21186459395058" cy="514.774694576491" r="13.254740121772862" fill="white" opacity="0.3"/><circle cx="567.1340831455918" cy="132.65233068142524" r="14.02546362891873" fill="white" opacity="0.3"/><circle cx="440.9995256210613" cy="32.36826216273381" r="12.116959050687647" fill="white" opacity="0.3"/><circle cx="204.09538371937924" cy="349.6990210522688" r="14.667865823855996" fill="white" opacity="0.3"/><circle cx="189.21204107992605" cy="3.4878443164074513" r="19.811248936820967" fill="white" opacity="0.3"/><circle cx="49.41911191520889" cy="425.7291752944157" r="13.483108580354555" fill="white" opacity="0.3"/><circle cx="294.11177467272137" cy="259.9711150468747" r="12.367871347472029" fill="white" opacity="0.3"/><circle cx="510.2413833425945" cy="562.5738275065441" r="7.7641156063242205" fill="white" opacity="0.3"/><circle cx="136.53401903025514" cy="340.4174269092514" r="13.177948341076346" fill="white" opacity="0.3"/><circle cx="317.9282661760837" cy="27.60586009707002" r="16.710997812786914" fill="white" opacity="0.3"/><circle cx="571.2677459571541" cy="47.54958600311645" r="5.239853234242581" fill="white" opacity="0.3"/><circle cx="776.6323957067497" cy="165.03086545991553" r="12.619925566755269" fill="white" opacity="0.3"/><circle cx="441.7854581919616" cy="598.8973575157779" r="6.205838212231138" fill="white" opacity="0.3"/><circle cx="744.4935951118888" cy="107.27404414558765" r="15.274896188404428" fill="white" opacity="0.3"/><circle cx="75.82870530491812" cy="341.2376511379598" r="19.458743625531977" fill="white" opacity="0.3"/><circle cx="247.63747766439474" cy="347.098172613352" r="6.0914441118508655" fill="white" opacity="0.3"/><circle cx="531.546895440117" cy="375.19419882776026" r="16.130151245558665" fill="white" opacity="0.3"/><circle cx="665.8613953538978" cy="544.3607928175043" r="17.208637462836464" fill="white" opacity="0.3"/><circle cx="707.9306463119754" cy="369.60430277607816" r="8.50970316350212" fill="white" opacity="0.3"/><circle cx="370.17753724962466" cy="185.2422959937796" r="12.896955756473622" fill="white" opacity="0.3"/><circle cx="339.76732696017365" cy="509.8192837026863" r="17.967825069284373" fill="white" opacity="0.3"/><circle cx="435.36916357392073" cy="451.3555947443894" r="14.802805049340387" fill="white" opacity="0.3"/><circle cx="452.62803698197365" cy="578.2353940910313" r="7.72198846621847" fill="white" opacity="0.3"/><circle cx="310.32912565342514" cy="451.0197080677804" r="16.920642389387957" fill="white" opacity="0.3"/><circle cx="8.731082766009823" cy="372.9916576153188" r="8.434144236043984" fill="white" opacity="0.3"/><circle cx="601.7793078575094" cy="402.7080287805322" r="12.402907757177081" fill="white" opacity="0.3"/><circle cx="239.55360396926943" cy="284.4939204723099" r="15.376983020645163" fill="white" opacity="0.3"/><circle cx="21.855812714602862" cy="87.10731793324378" r="17.1467678384038" fill="white" opacity="0.3"/><circle cx="221.20110268701092" cy="200.78464937712357" r="8.569800589888647" fill="white" opacity="0.3"/><circle cx="720.0712737331874" cy="386.66728692461487" r="9.776106014033626" fill="white" opacity="0.3"/><circle cx="584.9165254583961" cy="373.70255902342745" r="13.40842426664336" fill="white" opacity="0.3"/><circle cx="203.9230651045231" cy="146.05278537619907" r="6.038739858227099" fill="white" opacity="0.3"/><circle cx="351.9391415469979" cy="115.50788742191413" r="14.576625022926198" fill="white" opacity="0.3"/><circle cx="568.1614071012638" cy="280.6534322931677" r="12.499729526889938" fill="white" opacity="0.3"/><circle cx="87.54813780849106" cy="368.18088022299816" r="15.09416850276042" fill="white" opacity="0.3"/><circle cx="129.7627541571358" cy="303.0128730097937" r="18.558604677630818" fill="white" opacity="0.3"/><circle cx="505.2770404597834" cy="519.2093329463463" r="7.599045003932709" fill="white" opacity="0.3"/><circle cx="744.0203785121031" cy="354.05211446647724" r="8.439050193351752" fill="white" opacity="0.3"/><circle cx="454.70363954024447" cy="216.15214097462004" r="19.027077203143723" fill="white" opacity="0.3"/><circle cx="361.3510850774658" cy="201.57671871687984" r="10.958583206403494" fill="white" opacity="0.3"/><circle cx="675.8903428796259" cy="308.1755335965676" r="18.24323485505403" fill="white" opacity="0.3"/><circle cx="531.9884103783016" cy="18.088482197477006" r="8.55911892752121" fill="white" opacity="0.3"/><circle cx="656.278220208946" cy="16.952484528432656" r="9.845688693749775" fill="white" opacity="0.3"/><circle cx="58.32512644318797" cy="571.9191100777701" r="8.631231528678486" fill="white" opacity="0.3"/><circle cx="548.7600708028303" cy="304.5513923011424" r="10.976931362532138" fill="white" opacity="0.3"/><circle cx="662.3534396337348" cy="468.65146961829174" r="14.416992138333153" fill="white" opacity="0.3"/><circle cx="97.17621518478241" cy="598.9302814407073" r="14.948843037805863" fill="white" opacity="0.3"/><circle cx="344.42407804173973" cy="451.017167300681" r="19.19089262658892" fill="white" opacity="0.3"/><circle cx="257.6160789236348" cy="84.22619207516647" r="19.040576728012034" fill="white" opacity="0.3"/><circle cx="751.3402209182707" cy="69.37694614622356" r="19.560017736199242" fill="white" opacity="0.3"/><circle cx="785.3440398982506" cy="594.9600216710747" r="11.872177933376909" fill="white" opacity="0.3"/><circle cx="631.6373119356386" cy="179.50930253337322" r="19.232551076663306" fill="white" opacity="0.3"/><circle cx="652.9257232762963" cy="466.71487535167614" r="6.095567979988784" fill="white" opacity="0.3"/><circle cx="116.93286335849349" cy="480.799983532276" r="14.551602531926369" fill="white" opacity="0.3"/><circle cx="454.52032064459695" cy="521.3949624536057" r="10.393609537532708" fill="white" opacity="0.3"/><circle cx="657.0926011517626" cy="493.82239779744464" r="12.396266533797128" fill="white" opacity="0.3"/><circle cx="595.8663054353758" cy="367.2638912157236" r="13.809410996800601" fill="white" opacity="0.3"/><circle cx="151.56261713111095" cy="111.99077621077758" r="12.590443408788724" fill="white" opacity="0.3"/><circle cx="644.6702361229877" cy="447.8850560764377" r="14.08036992653533" fill="white" opacity="0.3"/><circle cx="278.3810127361567" cy="456.4106944891455" r="5.624385297254644" fill="white" opacity="0.3"/><circle cx="342.8311011508321" cy="188.3623277680339" r="15.46630780765762" fill="white" opacity="0.3"/><circle cx="135.98516332327603" cy="174.70649432086563" r="19.975424920792506" fill="white" opacity="0.3"/><circle cx="760.3132509899106" cy="316.09987300647737" r="11.583539287935679" fill="white" opacity="0.3"/><circle cx="753.8514166118847" cy="248.14123457714464" r="8.598341906100407" fill="white" opacity="0.3"/><circle cx="388.4486351094586" cy="108.50554241833925" r="14.539195788983262" fill="white" opacity="0.3"/><circle cx="179.04212094974943" cy="546.4599929786926" r="11.973530031116665" fill="white" opacity="0.3"/><circle cx="92.69528519657592" cy="418.5730823051926" r="8.936223844585406" fill="white" opacity="0.3"/><circle cx="689.4473244046309" cy="191.40292203822443" r="11.429515857438574" fill="white" opacity="0.3"/><circle cx="679.0898223867857" cy="247.7537058070879" r="13.899086986930309" fill="white" opacity="0.3"/><circle cx="315.0375942152425" cy="538.5144059317732" r="11.612458726061263" fill="white" opacity="0.3"/><circle cx="403.06368689757306" cy="114.5253005415063" r="7.610334060168698" fill="white" opacity="0.3"/><circle cx="653.3499528711047" cy="503.83473655230966" r="6.433240396136972" fill="white" opacity="0.3"/><circle cx="503.95683638289455" cy="132.7048664033895" r="7.900892479902426" fill="white" opacity="0.3"/><circle cx="671.6997027127912" cy="322.01853490138774" r="6.9990119165968885" fill="white" opacity="0.3"/><circle cx="767.824017554285" cy="3.6305549027787265" r="12.831579047935257" fill="white" opacity="0.3"/><circle cx="216.14720860775938" cy="318.49224177619703" r="19.824419467157476" fill="white" opacity="0.3"/><circle cx="463.29535791029673" cy="175.05463173873198" r="9.921667135082854" fill="white" opacity="0.3"/><circle cx="42.13648391582004" cy="441.8332731428468" r="10.088497226957795" fill="white" opacity="0.3"/><circle cx="479.3532800641163" cy="143.4175692055157" r="16.27490411668162" fill="white" opacity="0.3"/><circle cx="652.5726488085064" cy="228.042515166084" r="14.858851017466502" fill="white" opacity="0.3"/><circle cx="706.5372627610723" cy="327.5785271741524" r="15.438243495043194" fill="white" opacity="0.3"/><circle cx="311.50735404751435" cy="240.14094248242097" r="16.00713266529535" fill="white" opacity="0.3"/><circle cx="685.6143976718664" cy="98.44324293079671" r="9.0596712299974" fill="white" opacity="0.3"/><circle cx="572.9579776770718" cy="359.3576015708258" r="7.511794004839945" fill="white" opacity="0.3"/><circle cx="632.2892642931486" cy="583.481461686674" r="9.679404181501567" fill="white" opacity="0.3"/><circle cx="103.19190851039579" cy="217.00703119178468" r="11.35013890884576" fill="white" opacity="0.3"/>
  </g>
  
  <!-- Text -->
  <g filter="url(#shadow)">
    <text x="400" y="280" font-family="Arial, sans-serif" font-size="48" font-weight="bold" fill="#333333" text-anchor="middle">
      TPE
    </text>
    <text x="400" y="330" font-family="Arial, sans-serif" font-size="24" fill="#333333" text-anchor="middle" opacity="0.8">
      Thermoplastic Elastomer
    </text>
  </g>
  
  <!-- Watermark -->
  <text x="400" y="570" font-family="Arial, sans-serif" font-size="14" fill="#333333" text-anchor="middle" opacity="0.5">
    Arihant Polyplast • Premium Quality Materials
  </text>
</svg>